<?xml version="1.0" encoding="UTF-8" standalone="no"?><!-- Generator: Gravit.io --><svg xmlns="http://www.w3.org/2000/svg" xmlns:xlink="http://www.w3.org/1999/xlink" style="isolation:isolate" viewBox="594.44 441.912 202.118 89.177" width="202.118pt" height="89.177pt"><path d=" M 711.389 476.213 L 708.79 469.715 L 704.181 458.192 C 700.224 448.301 690.787 441.912 680.133 441.912 L 650.765 441.912 C 640.113 441.912 630.674 448.301 626.717 458.192 L 622.108 469.715 L 619.509 476.213 C 613.931 478.333 609.949 483.689 609.949 490.012 L 609.949 501.112 C 609.949 504.839 611.373 508.204 613.649 510.808 L 613.649 523.312 C 613.649 527.398 616.963 530.712 621.049 530.712 L 628.449 530.712 C 632.535 530.712 635.849 527.398 635.849 523.312 L 635.849 515.912 L 695.049 515.912 L 695.049 523.312 C 695.049 527.398 698.363 530.712 702.449 530.712 L 709.849 530.712 C 713.935 530.712 717.249 527.398 717.249 523.312 L 717.249 510.808 C 719.524 508.206 720.949 504.842 720.949 501.112 L 720.949 490.012 C 720.949 483.689 716.967 478.333 711.389 476.213 L 711.389 476.213 Z  M 640.458 463.688 C 642.144 459.475 646.225 456.712 650.765 456.712 L 680.133 456.712 C 684.673 456.712 688.754 459.475 690.44 463.688 L 695.049 475.212 L 635.849 475.212 L 640.458 463.688 Z  M 628.449 501.065 C 624.009 501.065 621.049 498.115 621.049 493.688 C 621.049 489.262 624.009 486.312 628.449 486.312 C 632.889 486.312 639.549 492.951 639.549 497.377 C 639.549 501.803 632.889 501.065 628.449 501.065 Z  M 702.449 501.065 C 698.009 501.065 691.349 501.803 691.349 497.377 C 691.349 492.951 698.009 486.312 702.449 486.312 C 706.889 486.312 709.849 489.262 709.849 493.688 C 709.849 498.115 706.889 501.065 702.449 501.065 L 702.449 501.065 Z " fill="rgb(0,0,0)"/><path d=" M 703.44 476.213 L 700.841 469.715 L 696.232 458.192 C 692.275 448.301 682.838 441.912 672.184 441.912 L 642.816 441.912 C 632.164 441.912 622.725 448.301 618.768 458.192 L 614.159 469.715 L 611.56 476.213 C 605.982 478.333 602 483.689 602 490.012 L 602 501.112 C 602 504.839 603.424 508.204 605.7 510.808 L 605.7 523.312 C 605.7 527.398 609.014 530.712 613.1 530.712 L 620.5 530.712 C 624.586 530.712 627.9 527.398 627.9 523.312 L 627.9 515.912 L 687.1 515.912 L 687.1 523.312 C 687.1 527.398 690.414 530.712 694.5 530.712 L 701.9 530.712 C 705.986 530.712 709.3 527.398 709.3 523.312 L 709.3 510.808 C 711.575 508.206 713 504.842 713 501.112 L 713 490.012 C 713 483.689 709.018 478.333 703.44 476.213 L 703.44 476.213 Z  M 632.509 463.688 C 634.195 459.475 638.276 456.712 642.816 456.712 L 672.184 456.712 C 676.724 456.712 680.805 459.475 682.491 463.688 L 687.1 475.212 L 627.9 475.212 L 632.509 463.688 Z  M 620.5 501.065 C 616.06 501.065 613.1 498.115 613.1 493.688 C 613.1 489.262 616.06 486.312 620.5 486.312 C 624.94 486.312 631.6 492.951 631.6 497.377 C 631.6 501.803 624.94 501.065 620.5 501.065 Z  M 694.5 501.065 C 690.06 501.065 683.4 501.803 683.4 497.377 C 683.4 492.951 690.06 486.312 694.5 486.312 C 698.94 486.312 701.9 489.262 701.9 493.688 C 701.9 498.115 698.94 501.065 694.5 501.065 L 694.5 501.065 Z " fill="rgb(255,255,255)"/><path d=" M 695.88 476.59 L 693.281 470.092 L 688.672 458.568 C 684.716 448.678 675.278 442.288 664.625 442.288 L 635.256 442.288 C 624.604 442.288 615.165 448.678 611.208 458.568 L 606.599 470.092 L 604 476.59 C 598.422 478.71 594.44 484.066 594.44 490.388 L 594.44 501.488 C 594.44 505.216 595.865 508.581 598.14 511.185 L 598.14 523.688 C 598.14 527.775 601.454 531.088 605.54 531.088 L 612.94 531.088 C 617.026 531.088 620.34 527.775 620.34 523.688 L 620.34 516.288 L 679.54 516.288 L 679.54 523.688 C 679.54 527.775 682.854 531.088 686.94 531.088 L 694.34 531.088 C 698.426 531.088 701.74 527.775 701.74 523.688 L 701.74 511.185 C 704.016 508.583 705.44 505.219 705.44 501.488 L 705.44 490.388 C 705.44 484.066 701.458 478.71 695.88 476.59 L 695.88 476.59 Z  M 624.949 464.065 C 626.635 459.852 630.716 457.088 635.256 457.088 L 664.625 457.088 C 669.164 457.088 673.246 459.852 674.931 464.065 L 679.54 475.588 L 620.34 475.588 L 624.949 464.065 Z  M 612.94 501.442 C 608.5 501.442 605.54 498.491 605.54 494.065 C 605.54 489.639 608.5 486.688 612.94 486.688 C 617.38 486.688 624.04 493.328 624.04 497.754 C 624.04 502.18 617.38 501.442 612.94 501.442 Z  M 686.94 501.442 C 682.5 501.442 675.84 502.18 675.84 497.754 C 675.84 493.328 682.5 486.688 686.94 486.688 C 691.38 486.688 694.34 489.639 694.34 494.065 C 694.34 498.491 691.38 501.442 686.94 501.442 L 686.94 501.442 Z " fill="rgb(255,56,96)"/><line x1="738.56" y1="470.065" x2="789.56" y2="470.065" vector-effect="non-scaling-stroke" stroke-width="2" stroke="rgb(185,185,185)" stroke-linejoin="miter" stroke-linecap="square" stroke-miterlimit="3"/><line x1="743.56" y1="482.59" x2="794.56" y2="482.59" vector-effect="non-scaling-stroke" stroke-width="2" stroke="rgb(139,139,139)" stroke-linejoin="miter" stroke-linecap="square" stroke-miterlimit="3"/><line x1="744.56" y1="496.388" x2="795.56" y2="496.388" vector-effect="non-scaling-stroke" stroke-width="2" stroke="rgb(185,185,185)" stroke-linejoin="miter" stroke-linecap="square" stroke-miterlimit="3"/><line x1="733" y1="508.912" x2="784" y2="508.912" vector-effect="non-scaling-stroke" stroke-width="2" stroke="rgb(139,139,139)" stroke-linejoin="miter" stroke-linecap="square" stroke-miterlimit="3"/><line x1="725" y1="458.912" x2="776" y2="458.912" vector-effect="non-scaling-stroke" stroke-width="2" stroke="rgb(139,139,139)" stroke-linejoin="miter" stroke-linecap="square" stroke-miterlimit="3"/></svg>