<?xml version="1.0" encoding="UTF-8" standalone="no"?><!-- Generator: Gravit.io --><svg xmlns="http://www.w3.org/2000/svg" xmlns:xlink="http://www.w3.org/1999/xlink" style="isolation:isolate" viewBox="46.88 147 202.118 89.177" width="202.118pt" height="89.177pt"><path d=" M 163.829 181.301 L 161.23 174.803 L 156.621 163.28 C 152.664 153.389 143.227 147 132.573 147 L 103.205 147 C 92.553 147 83.114 153.389 79.157 163.28 L 74.548 174.803 L 71.949 181.301 C 66.371 183.422 62.389 188.778 62.389 195.1 L 62.389 206.2 C 62.389 209.928 63.814 213.292 66.089 215.896 L 66.089 228.4 C 66.089 232.486 69.403 235.8 73.489 235.8 L 80.889 235.8 C 84.975 235.8 88.289 232.486 88.289 228.4 L 88.289 221 L 147.489 221 L 147.489 228.4 C 147.489 232.486 150.803 235.8 154.889 235.8 L 162.289 235.8 C 166.375 235.8 169.689 232.486 169.689 228.4 L 169.689 215.896 C 171.965 213.295 173.389 209.93 173.389 206.2 L 173.389 195.1 C 173.389 188.778 169.407 183.422 163.829 181.301 L 163.829 181.301 Z  M 92.898 168.777 C 94.584 164.563 98.665 161.8 103.205 161.8 L 132.573 161.8 C 137.113 161.8 141.194 164.563 142.88 168.777 L 147.489 180.3 L 88.289 180.3 L 92.898 168.777 Z  M 80.889 206.154 C 76.449 206.154 73.489 203.203 73.489 198.777 C 73.489 194.351 76.449 191.4 80.889 191.4 C 85.329 191.4 91.989 198.039 91.989 202.465 C 91.989 206.891 85.329 206.154 80.889 206.154 Z  M 154.889 206.154 C 150.449 206.154 143.789 206.891 143.789 202.465 C 143.789 198.039 150.449 191.4 154.889 191.4 C 159.329 191.4 162.289 194.351 162.289 198.777 C 162.289 203.203 159.329 206.154 154.889 206.154 L 154.889 206.154 Z " fill="rgb(0,0,0)"/><path d=" M 155.88 181.301 L 153.281 174.803 L 148.672 163.28 C 144.716 153.389 135.278 147 124.625 147 L 95.256 147 C 84.604 147 75.165 153.389 71.208 163.28 L 66.599 174.803 L 64 181.301 C 58.422 183.422 54.44 188.778 54.44 195.1 L 54.44 206.2 C 54.44 209.928 55.865 213.292 58.14 215.896 L 58.14 228.4 C 58.14 232.486 61.454 235.8 65.54 235.8 L 72.94 235.8 C 77.026 235.8 80.34 232.486 80.34 228.4 L 80.34 221 L 139.54 221 L 139.54 228.4 C 139.54 232.486 142.854 235.8 146.94 235.8 L 154.34 235.8 C 158.426 235.8 161.74 232.486 161.74 228.4 L 161.74 215.896 C 164.016 213.295 165.44 209.93 165.44 206.2 L 165.44 195.1 C 165.44 188.778 161.458 183.422 155.88 181.301 L 155.88 181.301 Z  M 84.949 168.777 C 86.635 164.563 90.716 161.8 95.256 161.8 L 124.625 161.8 C 129.164 161.8 133.246 164.563 134.931 168.777 L 139.54 180.3 L 80.34 180.3 L 84.949 168.777 Z  M 72.94 206.154 C 68.5 206.154 65.54 203.203 65.54 198.777 C 65.54 194.351 68.5 191.4 72.94 191.4 C 77.38 191.4 84.04 198.039 84.04 202.465 C 84.04 206.891 77.38 206.154 72.94 206.154 Z  M 146.94 206.154 C 142.5 206.154 135.84 206.891 135.84 202.465 C 135.84 198.039 142.5 191.4 146.94 191.4 C 151.38 191.4 154.34 194.351 154.34 198.777 C 154.34 203.203 151.38 206.154 146.94 206.154 L 146.94 206.154 Z " fill="rgb(255,255,255)"/><path d=" M 148.32 181.678 L 145.721 175.18 L 141.112 163.657 C 137.156 153.766 127.718 147.377 117.065 147.377 L 87.696 147.377 C 77.045 147.377 67.605 153.766 63.648 163.657 L 59.039 175.18 L 56.44 181.678 C 50.862 183.799 46.88 189.154 46.88 195.477 L 46.88 206.577 C 46.88 210.305 48.305 213.669 50.58 216.273 L 50.58 228.777 C 50.58 232.863 53.894 236.177 57.98 236.177 L 65.38 236.177 C 69.466 236.177 72.78 232.863 72.78 228.777 L 72.78 221.377 L 131.98 221.377 L 131.98 228.777 C 131.98 232.863 135.294 236.177 139.38 236.177 L 146.78 236.177 C 150.866 236.177 154.18 232.863 154.18 228.777 L 154.18 216.273 C 156.456 213.672 157.88 210.307 157.88 206.577 L 157.88 195.477 C 157.88 189.154 153.898 183.799 148.32 181.678 L 148.32 181.678 Z  M 77.389 169.154 C 79.075 164.94 83.156 162.177 87.696 162.177 L 117.065 162.177 C 121.604 162.177 125.686 164.94 127.371 169.154 L 131.98 180.677 L 72.78 180.677 L 77.389 169.154 Z  M 65.38 206.531 C 60.94 206.531 57.98 203.58 57.98 199.154 C 57.98 194.728 60.94 191.777 65.38 191.777 C 69.82 191.777 76.48 198.416 76.48 202.842 C 76.48 207.268 69.82 206.531 65.38 206.531 Z  M 139.38 206.531 C 134.94 206.531 128.28 207.268 128.28 202.842 C 128.28 198.416 134.94 191.777 139.38 191.777 C 143.82 191.777 146.78 194.728 146.78 199.154 C 146.78 203.58 143.82 206.531 139.38 206.531 L 139.38 206.531 Z " fill="rgb(255,0,0)"/><line x1="191" y1="175.154" x2="242" y2="175.154" vector-effect="non-scaling-stroke" stroke-width="2" stroke="rgb(209,209,209)" stroke-linejoin="miter" stroke-linecap="square" stroke-miterlimit="3"/><line x1="196" y1="187.678" x2="247" y2="187.678" vector-effect="non-scaling-stroke" stroke-width="2" stroke="rgb(139,139,139)" stroke-linejoin="miter" stroke-linecap="square" stroke-miterlimit="3"/><line x1="197" y1="201.477" x2="248" y2="201.477" vector-effect="non-scaling-stroke" stroke-width="2" stroke="rgb(209,209,209)" stroke-linejoin="miter" stroke-linecap="square" stroke-miterlimit="3"/><line x1="185.44" y1="214" x2="236.44" y2="214" vector-effect="non-scaling-stroke" stroke-width="2" stroke="rgb(139,139,139)" stroke-linejoin="miter" stroke-linecap="square" stroke-miterlimit="3"/><line x1="177.44" y1="164" x2="228.44" y2="164" vector-effect="non-scaling-stroke" stroke-width="2" stroke="rgb(139,139,139)" stroke-linejoin="miter" stroke-linecap="square" stroke-miterlimit="3"/></svg>