<?xml version="1.0" encoding="UTF-8" standalone="no"?><!-- Generator: Gravit.io --><svg xmlns="http://www.w3.org/2000/svg" xmlns:xlink="http://www.w3.org/1999/xlink" style="isolation:isolate" viewBox="46.88 113.38 930.12 156.04" width="930.12pt" height="156.04pt"><path d=" M 163.829 181.301 L 161.23 174.803 L 156.621 163.28 C 152.664 153.389 143.227 147 132.573 147 L 103.205 147 C 92.553 147 83.114 153.389 79.157 163.28 L 74.548 174.803 L 71.949 181.301 C 66.371 183.422 62.389 188.778 62.389 195.1 L 62.389 206.2 C 62.389 209.928 63.814 213.292 66.089 215.896 L 66.089 228.4 C 66.089 232.486 69.403 235.8 73.489 235.8 L 80.889 235.8 C 84.975 235.8 88.289 232.486 88.289 228.4 L 88.289 221 L 147.489 221 L 147.489 228.4 C 147.489 232.486 150.803 235.8 154.889 235.8 L 162.289 235.8 C 166.375 235.8 169.689 232.486 169.689 228.4 L 169.689 215.896 C 171.965 213.295 173.389 209.93 173.389 206.2 L 173.389 195.1 C 173.389 188.778 169.407 183.422 163.829 181.301 L 163.829 181.301 Z  M 92.898 168.777 C 94.584 164.563 98.665 161.8 103.205 161.8 L 132.573 161.8 C 137.113 161.8 141.194 164.563 142.88 168.777 L 147.489 180.3 L 88.289 180.3 L 92.898 168.777 Z  M 80.889 206.154 C 76.449 206.154 73.489 203.203 73.489 198.777 C 73.489 194.351 76.449 191.4 80.889 191.4 C 85.329 191.4 91.989 198.039 91.989 202.465 C 91.989 206.891 85.329 206.154 80.889 206.154 Z  M 154.889 206.154 C 150.449 206.154 143.789 206.891 143.789 202.465 C 143.789 198.039 150.449 191.4 154.889 191.4 C 159.329 191.4 162.289 194.351 162.289 198.777 C 162.289 203.203 159.329 206.154 154.889 206.154 L 154.889 206.154 Z " fill="rgb(0,0,0)"/><path d=" M 317.78 228.58 L 317.78 228.58 Q 306.12 228.58 297.595 224.015 L 297.595 224.015 L 297.595 224.015 Q 289.07 219.45 284.505 211.035 L 284.505 211.035 L 284.505 211.035 Q 279.94 202.62 279.94 191.18 L 279.94 191.18 L 279.94 191.18 Q 279.94 178.53 285.11 168.96 L 285.11 168.96 L 285.11 168.96 Q 290.28 159.39 299.685 154.22 L 299.685 154.22 L 299.685 154.22 Q 309.09 149.05 321.52 149.05 L 321.52 149.05 L 321.52 149.05 Q 328.45 149.05 334.335 150.645 L 334.335 150.645 L 334.335 150.645 Q 340.22 152.24 344.18 154.22 L 344.18 154.22 L 344.18 154.22 Q 349.24 157.3 349.24 162.47 L 349.24 162.47 L 349.24 162.47 Q 349.24 165.66 347.095 168.025 L 347.095 168.025 L 347.095 168.025 Q 344.95 170.39 341.76 170.39 L 341.76 170.39 L 341.76 170.39 Q 339.45 170.39 337.03 168.96 L 337.03 168.96 L 337.03 168.96 Q 329.11 165.11 322.51 165.11 L 322.51 165.11 L 322.51 165.11 Q 311.95 165.11 306.23 172.04 L 306.23 172.04 L 306.23 172.04 Q 300.51 178.97 300.51 191.18 L 300.51 191.18 L 300.51 191.18 Q 300.51 201.63 305.02 207.075 L 305.02 207.075 L 305.02 207.075 Q 309.53 212.52 318.33 212.52 L 318.33 212.52 L 318.33 212.52 Q 322.29 212.52 325.48 211.475 L 325.48 211.475 L 325.48 211.475 Q 328.67 210.43 333.95 208.34 L 333.95 208.34 L 333.95 208.34 Q 336.37 207.13 338.35 207.13 L 338.35 207.13 L 338.35 207.13 Q 341.32 207.13 343.19 209.275 L 343.19 209.275 L 343.19 209.275 Q 345.06 211.42 345.06 214.39 L 345.06 214.39 L 345.06 214.39 Q 345.06 216.59 344.015 218.68 L 344.015 218.68 L 344.015 218.68 Q 342.97 220.77 340.77 222.42 L 340.77 222.42 L 340.77 222.42 Q 337.47 224.84 331.145 226.71 L 331.145 226.71 L 331.145 226.71 Q 324.82 228.58 317.78 228.58 L 317.78 228.58 L 317.78 228.58 Z  M 428.34 216.15 L 428.34 216.15 Q 429 217.8 429 219.34 L 429 219.34 L 429 219.34 Q 429 223.08 425.92 225.665 L 425.92 225.665 L 425.92 225.665 Q 422.84 228.25 418.99 228.25 L 418.99 228.25 L 418.99 228.25 Q 416.46 228.25 414.37 226.875 L 414.37 226.875 L 414.37 226.875 Q 412.28 225.5 411.29 222.75 L 411.29 222.75 L 407.33 211.53 L 372.9 211.53 L 367.29 222.64 L 367.29 222.64 Q 365.86 225.39 363.605 226.71 L 363.605 226.71 L 363.605 226.71 Q 361.35 228.03 358.82 228.03 L 358.82 228.03 L 358.82 228.03 Q 355.19 228.03 352.385 225.72 L 352.385 225.72 L 352.385 225.72 Q 349.58 223.41 349.58 219.89 L 349.58 219.89 L 349.58 219.89 Q 349.58 217.69 350.9 215.27 L 350.9 215.27 L 383.57 155.54 L 383.57 155.54 Q 385.22 152.46 388.19 150.865 L 388.19 150.865 L 388.19 150.865 Q 391.16 149.27 394.57 149.27 L 394.57 149.27 L 394.57 149.27 Q 397.98 149.27 400.73 150.865 L 400.73 150.865 L 400.73 150.865 Q 403.48 152.46 404.58 155.43 L 404.58 155.43 L 428.34 216.15 L 428.34 216.15 Z  M 393.25 171.38 L 380.6 196.35 L 402.05 196.35 L 393.25 171.38 L 393.25 171.38 Z  M 497.1 205.04 L 502.05 215.49 L 502.05 215.49 Q 503.04 217.58 503.04 219.56 L 503.04 219.56 L 503.04 219.56 Q 503.04 223.41 499.85 226.105 L 499.85 226.105 L 499.85 226.105 Q 496.66 228.8 492.7 228.8 L 492.7 228.8 L 492.7 228.8 Q 489.95 228.8 487.64 227.37 L 487.64 227.37 L 487.64 227.37 Q 485.33 225.94 483.9 223.08 L 483.9 223.08 L 474.44 202.84 L 474.44 202.84 Q 472.46 198.55 467.51 198.55 L 467.51 198.55 L 460.47 198.55 L 459.04 218.13 L 459.04 218.13 Q 458.71 222.75 455.85 225.5 L 455.85 225.5 L 455.85 225.5 Q 452.99 228.25 448.37 228.25 L 448.37 228.25 L 448.37 228.25 Q 443.75 228.25 441.22 225.555 L 441.22 225.555 L 441.22 225.555 Q 438.69 222.86 439.13 218.24 L 439.13 218.24 L 443.75 159.39 L 443.75 159.39 Q 444.19 154.88 446.775 152.46 L 446.775 152.46 L 446.775 152.46 Q 449.36 150.04 453.87 150.04 L 453.87 150.04 L 482.14 150.04 L 482.14 150.04 Q 494.35 150.04 501.17 156.255 L 501.17 156.255 L 501.17 156.255 Q 507.99 162.47 507.99 172.81 L 507.99 172.81 L 507.99 172.81 Q 507.99 183.15 503.205 189.145 L 503.205 189.145 L 503.205 189.145 Q 498.42 195.14 488.3 197.01 L 488.3 197.01 L 488.3 197.01 Q 491.27 197.78 493.305 199.65 L 493.305 199.65 L 493.305 199.65 Q 495.34 201.52 497.1 205.04 L 497.1 205.04 L 497.1 205.04 Z  M 461.68 183.37 L 478.07 183.37 L 478.07 183.37 Q 483.46 183.37 486.265 180.95 L 486.265 180.95 L 486.265 180.95 Q 489.07 178.53 489.07 174.02 L 489.07 174.02 L 489.07 174.02 Q 489.07 169.62 486.705 167.475 L 486.705 167.475 L 486.705 167.475 Q 484.34 165.33 479.39 165.33 L 479.39 165.33 L 463 165.33 L 461.68 183.37 L 461.68 183.37 Z " fill="rgb(255,0,0)"/><path d=" M 591.82 216.15 L 591.82 216.15 Q 592.48 217.8 592.48 219.34 L 592.48 219.34 L 592.48 219.34 Q 592.48 223.08 589.4 225.665 L 589.4 225.665 L 589.4 225.665 Q 586.32 228.25 582.47 228.25 L 582.47 228.25 L 582.47 228.25 Q 579.94 228.25 577.85 226.875 L 577.85 226.875 L 577.85 226.875 Q 575.76 225.5 574.77 222.75 L 574.77 222.75 L 570.81 211.53 L 536.38 211.53 L 530.77 222.64 L 530.77 222.64 Q 529.34 225.39 527.085 226.71 L 527.085 226.71 L 527.085 226.71 Q 524.83 228.03 522.3 228.03 L 522.3 228.03 L 522.3 228.03 Q 518.67 228.03 515.865 225.72 L 515.865 225.72 L 515.865 225.72 Q 513.06 223.41 513.06 219.89 L 513.06 219.89 L 513.06 219.89 Q 513.06 217.69 514.38 215.27 L 514.38 215.27 L 547.05 155.54 L 547.05 155.54 Q 548.7 152.46 551.67 150.865 L 551.67 150.865 L 551.67 150.865 Q 554.64 149.27 558.05 149.27 L 558.05 149.27 L 558.05 149.27 Q 561.46 149.27 564.21 150.865 L 564.21 150.865 L 564.21 150.865 Q 566.96 152.46 568.06 155.43 L 568.06 155.43 L 591.82 216.15 L 591.82 216.15 Z  M 556.73 171.38 L 544.08 196.35 L 565.53 196.35 L 556.73 171.38 L 556.73 171.38 Z  M 664.21 183.81 L 664.21 183.81 Q 667.73 183.81 669.6 185.735 L 669.6 185.735 L 669.6 185.735 Q 671.47 187.66 671.25 191.07 L 671.25 191.07 L 669.71 210.32 L 669.71 210.32 Q 669.27 215.82 668.225 218.735 L 668.225 218.735 L 668.225 218.735 Q 667.18 221.65 664.925 223.3 L 664.925 223.3 L 664.925 223.3 Q 662.67 224.95 658.16 226.27 L 658.16 226.27 L 658.16 226.27 Q 653.87 227.37 648.645 227.975 L 648.645 227.975 L 648.645 227.975 Q 643.42 228.58 638.69 228.58 L 638.69 228.58 L 638.69 228.58 Q 627.03 228.58 618.505 224.015 L 618.505 224.015 L 618.505 224.015 Q 609.98 219.45 605.36 210.925 L 605.36 210.925 L 605.36 210.925 Q 600.74 202.4 600.74 190.96 L 600.74 190.96 L 600.74 190.96 Q 600.74 178.31 605.91 168.85 L 605.91 168.85 L 605.91 168.85 Q 611.08 159.39 620.595 154.22 L 620.595 154.22 L 620.595 154.22 Q 630.11 149.05 642.87 149.05 L 642.87 149.05 L 642.87 149.05 Q 650.68 149.05 656.95 150.645 L 656.95 150.645 L 656.95 150.645 Q 663.22 152.24 667.07 154.33 L 667.07 154.33 L 667.07 154.33 Q 669.6 155.87 670.865 157.96 L 670.865 157.96 L 670.865 157.96 Q 672.13 160.05 672.13 162.36 L 672.13 162.36 L 672.13 162.36 Q 672.13 165.55 669.93 167.97 L 669.93 167.97 L 669.93 167.97 Q 667.73 170.39 664.54 170.39 L 664.54 170.39 L 664.54 170.39 Q 662.23 170.39 659.7 168.85 L 659.7 168.85 L 659.7 168.85 Q 655.96 166.98 652.33 165.99 L 652.33 165.99 L 652.33 165.99 Q 648.7 165 643.09 165 L 643.09 165 L 643.09 165 Q 632.75 165 626.975 171.985 L 626.975 171.985 L 626.975 171.985 Q 621.2 178.97 621.2 191.07 L 621.2 191.07 L 621.2 191.07 Q 621.2 201.85 626.26 207.515 L 626.26 207.515 L 626.26 207.515 Q 631.32 213.18 641.66 213.18 L 641.66 213.18 L 641.66 213.18 Q 646.28 213.18 651.56 211.86 L 651.56 211.86 L 652.66 197.67 L 645.4 197.67 L 645.4 197.67 Q 637.7 197.67 637.7 190.96 L 637.7 190.96 L 637.7 190.96 Q 637.7 187.66 639.955 185.735 L 639.955 185.735 L 639.955 185.735 Q 642.21 183.81 645.84 183.81 L 645.84 183.81 L 664.21 183.81 L 664.21 183.81 Z  M 734.95 165.66 L 707.23 165.66 L 706.02 180.4 L 731.54 180.4 L 731.54 180.4 Q 735.94 180.4 738.195 182.27 L 738.195 182.27 L 738.195 182.27 Q 740.45 184.14 740.45 187.55 L 740.45 187.55 L 740.45 187.55 Q 740.45 191.84 737.975 193.875 L 737.975 193.875 L 737.975 193.875 Q 735.5 195.91 730.33 195.91 L 730.33 195.91 L 704.81 195.91 L 703.49 211.97 L 731.32 211.97 L 731.32 211.97 Q 735.72 211.97 737.975 213.95 L 737.975 213.95 L 737.975 213.95 Q 740.23 215.93 740.23 219.34 L 740.23 219.34 L 740.23 219.34 Q 740.23 227.59 730 227.59 L 730 227.59 L 691.94 227.59 L 691.94 227.59 Q 687.43 227.59 685.175 225.17 L 685.175 225.17 L 685.175 225.17 Q 682.92 222.75 683.36 218.24 L 683.36 218.24 L 687.98 159.39 L 687.98 159.39 Q 688.42 154.88 691.06 152.46 L 691.06 152.46 L 691.06 152.46 Q 693.7 150.04 698.1 150.04 L 698.1 150.04 L 736.27 150.04 L 736.27 150.04 Q 740.67 150.04 742.925 151.965 L 742.925 151.965 L 742.925 151.965 Q 745.18 153.89 745.18 157.19 L 745.18 157.19 L 745.18 157.19 Q 745.18 165.66 734.95 165.66 L 734.95 165.66 L 734.95 165.66 Z  M 814.93 149.49 L 814.93 149.49 Q 819.22 149.49 821.695 152.24 L 821.695 152.24 L 821.695 152.24 Q 824.17 154.99 823.73 159.39 L 823.73 159.39 L 819.11 218.24 L 819.11 218.24 Q 818.67 222.75 815.865 225.5 L 815.865 225.5 L 815.865 225.5 Q 813.06 228.25 808.88 228.25 L 808.88 228.25 L 808.88 228.25 Q 803.6 228.25 801.51 225.06 L 801.51 225.06 L 771.59 184.03 L 768.84 218.13 L 768.84 218.13 Q 768.51 222.75 765.76 225.5 L 765.76 225.5 L 765.76 225.5 Q 763.01 228.25 758.61 228.25 L 758.61 228.25 L 758.61 228.25 Q 754.43 228.25 752.01 225.5 L 752.01 225.5 L 752.01 225.5 Q 749.59 222.75 750.03 218.24 L 750.03 218.24 L 754.65 159.39 L 754.65 159.39 Q 755.09 154.99 757.95 152.24 L 757.95 152.24 L 757.95 152.24 Q 760.81 149.49 764.99 149.49 L 764.99 149.49 L 764.99 149.49 Q 769.94 149.49 772.14 152.68 L 772.14 152.68 L 802.06 193.82 L 804.81 159.5 L 804.81 159.5 Q 805.14 154.99 807.945 152.24 L 807.945 152.24 L 807.945 152.24 Q 810.75 149.49 814.93 149.49 L 814.93 149.49 L 814.93 149.49 Z  M 861.14 228.14 L 861.14 228.14 Q 856.52 228.14 853.935 225.445 L 853.935 225.445 L 853.935 225.445 Q 851.35 222.75 851.79 218.24 L 851.79 218.24 L 855.97 166.43 L 840.35 166.43 L 840.35 166.43 Q 831.44 166.43 831.44 158.95 L 831.44 158.95 L 831.44 158.95 Q 831.44 154.22 833.97 152.13 L 833.97 152.13 L 833.97 152.13 Q 836.5 150.04 841.67 150.04 L 841.67 150.04 L 893.15 150.04 L 893.15 150.04 Q 902.06 150.04 902.06 157.63 L 902.06 157.63 L 902.06 157.63 Q 902.06 162.36 899.585 164.395 L 899.585 164.395 L 899.585 164.395 Q 897.11 166.43 891.83 166.43 L 891.83 166.43 L 876.32 166.43 L 872.14 218.13 L 872.14 218.13 Q 871.81 222.64 868.84 225.39 L 868.84 225.39 L 868.84 225.39 Q 865.87 228.14 861.14 228.14 L 861.14 228.14 L 861.14 228.14 Z  M 931.55 228.58 L 931.55 228.58 Q 923.08 228.58 915.82 226.93 L 915.82 226.93 L 915.82 226.93 Q 908.56 225.28 904.05 222.75 L 904.05 222.75 L 904.05 222.75 Q 901.85 221.32 900.695 219.175 L 900.695 219.175 L 900.695 219.175 Q 899.54 217.03 899.54 214.72 L 899.54 214.72 L 899.54 214.72 Q 899.54 211.64 901.41 209.33 L 901.41 209.33 L 901.41 209.33 Q 903.28 207.02 906.36 207.02 L 906.36 207.02 L 906.36 207.02 Q 908.89 207.02 911.53 208.56 L 911.53 208.56 L 911.53 208.56 Q 915.05 210.32 920.605 211.695 L 920.605 211.695 L 920.605 211.695 Q 926.16 213.07 932.43 213.07 L 932.43 213.07 L 932.43 213.07 Q 938.7 213.07 942 211.42 L 942 211.42 L 942 211.42 Q 945.3 209.77 945.3 206.58 L 945.3 206.58 L 945.3 206.58 Q 945.3 203.17 941.67 201.245 L 941.67 201.245 L 941.67 201.245 Q 938.04 199.32 930.45 197.12 L 930.45 197.12 L 930.45 197.12 Q 922.31 194.7 917.14 192.39 L 917.14 192.39 L 917.14 192.39 Q 911.97 190.08 908.23 185.515 L 908.23 185.515 L 908.23 185.515 Q 904.49 180.95 904.49 173.69 L 904.49 173.69 L 904.49 173.69 Q 904.49 166.32 908.615 160.71 L 908.615 160.71 L 908.615 160.71 Q 912.74 155.1 920.33 152.075 L 920.33 152.075 L 920.33 152.075 Q 927.92 149.05 938.04 149.05 L 938.04 149.05 L 938.04 149.05 Q 946.29 149.05 953.275 150.865 L 953.275 150.865 L 953.275 150.865 Q 960.26 152.68 964.22 155.76 L 964.22 155.76 L 964.22 155.76 Q 967.52 158.29 967.52 162.47 L 967.52 162.47 L 967.52 162.47 Q 967.52 165.66 965.485 168.025 L 965.485 168.025 L 965.485 168.025 Q 963.45 170.39 960.26 170.39 L 960.26 170.39 L 960.26 170.39 Q 957.51 170.39 954.98 168.74 L 954.98 168.74 L 954.98 168.74 Q 951.57 167.09 946.95 165.825 L 946.95 165.825 L 946.95 165.825 Q 942.33 164.56 937.49 164.56 L 937.49 164.56 L 937.49 164.56 Q 931.55 164.56 928.085 166.485 L 928.085 166.485 L 928.085 166.485 Q 924.62 168.41 924.62 171.82 L 924.62 171.82 L 924.62 171.82 Q 924.62 175.34 928.195 177.21 L 928.195 177.21 L 928.195 177.21 Q 931.77 179.08 939.58 181.39 L 939.58 181.39 L 939.58 181.39 Q 947.61 183.81 952.725 186.065 L 952.725 186.065 L 952.725 186.065 Q 957.84 188.32 961.58 192.72 L 961.58 192.72 L 961.58 192.72 Q 965.32 197.12 965.32 204.27 L 965.32 204.27 L 965.32 204.27 Q 965.32 215.93 956.52 222.255 L 956.52 222.255 L 956.52 222.255 Q 947.72 228.58 931.55 228.58 L 931.55 228.58 L 931.55 228.58 Z " fill="rgb(46,46,46)"/><path d=" M 155.88 181.301 L 153.281 174.803 L 148.672 163.28 C 144.716 153.389 135.278 147 124.625 147 L 95.256 147 C 84.604 147 75.165 153.389 71.208 163.28 L 66.599 174.803 L 64 181.301 C 58.422 183.422 54.44 188.778 54.44 195.1 L 54.44 206.2 C 54.44 209.928 55.865 213.292 58.14 215.896 L 58.14 228.4 C 58.14 232.486 61.454 235.8 65.54 235.8 L 72.94 235.8 C 77.026 235.8 80.34 232.486 80.34 228.4 L 80.34 221 L 139.54 221 L 139.54 228.4 C 139.54 232.486 142.854 235.8 146.94 235.8 L 154.34 235.8 C 158.426 235.8 161.74 232.486 161.74 228.4 L 161.74 215.896 C 164.016 213.295 165.44 209.93 165.44 206.2 L 165.44 195.1 C 165.44 188.778 161.458 183.422 155.88 181.301 L 155.88 181.301 Z  M 84.949 168.777 C 86.635 164.563 90.716 161.8 95.256 161.8 L 124.625 161.8 C 129.164 161.8 133.246 164.563 134.931 168.777 L 139.54 180.3 L 80.34 180.3 L 84.949 168.777 Z  M 72.94 206.154 C 68.5 206.154 65.54 203.203 65.54 198.777 C 65.54 194.351 68.5 191.4 72.94 191.4 C 77.38 191.4 84.04 198.039 84.04 202.465 C 84.04 206.891 77.38 206.154 72.94 206.154 Z  M 146.94 206.154 C 142.5 206.154 135.84 206.891 135.84 202.465 C 135.84 198.039 142.5 191.4 146.94 191.4 C 151.38 191.4 154.34 194.351 154.34 198.777 C 154.34 203.203 151.38 206.154 146.94 206.154 L 146.94 206.154 Z " fill="rgb(255,255,255)"/><path d=" M 148.32 181.678 L 145.721 175.18 L 141.112 163.657 C 137.156 153.766 127.718 147.377 117.065 147.377 L 87.696 147.377 C 77.045 147.377 67.605 153.766 63.648 163.657 L 59.039 175.18 L 56.44 181.678 C 50.862 183.799 46.88 189.154 46.88 195.477 L 46.88 206.577 C 46.88 210.305 48.305 213.669 50.58 216.273 L 50.58 228.777 C 50.58 232.863 53.894 236.177 57.98 236.177 L 65.38 236.177 C 69.466 236.177 72.78 232.863 72.78 228.777 L 72.78 221.377 L 131.98 221.377 L 131.98 228.777 C 131.98 232.863 135.294 236.177 139.38 236.177 L 146.78 236.177 C 150.866 236.177 154.18 232.863 154.18 228.777 L 154.18 216.273 C 156.456 213.672 157.88 210.307 157.88 206.577 L 157.88 195.477 C 157.88 189.154 153.898 183.799 148.32 181.678 L 148.32 181.678 Z  M 77.389 169.154 C 79.075 164.94 83.156 162.177 87.696 162.177 L 117.065 162.177 C 121.604 162.177 125.686 164.94 127.371 169.154 L 131.98 180.677 L 72.78 180.677 L 77.389 169.154 Z  M 65.38 206.531 C 60.94 206.531 57.98 203.58 57.98 199.154 C 57.98 194.728 60.94 191.777 65.38 191.777 C 69.82 191.777 76.48 198.416 76.48 202.842 C 76.48 207.268 69.82 206.531 65.38 206.531 Z  M 139.38 206.531 C 134.94 206.531 128.28 207.268 128.28 202.842 C 128.28 198.416 134.94 191.777 139.38 191.777 C 143.82 191.777 146.78 194.728 146.78 199.154 C 146.78 203.58 143.82 206.531 139.38 206.531 L 139.38 206.531 Z " fill="rgb(255,0,0)"/><line x1="191" y1="175.154" x2="242" y2="175.154" vector-effect="non-scaling-stroke" stroke-width="2" stroke="rgb(209,209,209)" stroke-linejoin="miter" stroke-linecap="square" stroke-miterlimit="3"/><line x1="196" y1="187.678" x2="247" y2="187.678" vector-effect="non-scaling-stroke" stroke-width="2" stroke="rgb(209,209,209)" stroke-linejoin="miter" stroke-linecap="square" stroke-miterlimit="3"/><line x1="197" y1="201.477" x2="248" y2="201.477" vector-effect="non-scaling-stroke" stroke-width="2" stroke="rgb(209,209,209)" stroke-linejoin="miter" stroke-linecap="square" stroke-miterlimit="3"/><line x1="185.44" y1="214" x2="236.44" y2="214" vector-effect="non-scaling-stroke" stroke-width="2" stroke="rgb(209,209,209)" stroke-linejoin="miter" stroke-linecap="square" stroke-miterlimit="3"/><line x1="177.44" y1="164" x2="228.44" y2="164" vector-effect="non-scaling-stroke" stroke-width="2" stroke="rgb(209,209,209)" stroke-linejoin="miter" stroke-linecap="square" stroke-miterlimit="3"/></svg>