<?xml version="1.0" encoding="UTF-8" standalone="no"?><!-- Generator: Gravit.io --><svg xmlns="http://www.w3.org/2000/svg" xmlns:xlink="http://www.w3.org/1999/xlink" style="isolation:isolate" viewBox="46.88 116.38 925.12 150.04" width="925.12pt" height="150.04pt"><path d=" M 163.829 181.301 L 161.23 174.803 L 156.621 163.28 C 152.664 153.389 143.227 147 132.573 147 L 103.205 147 C 92.553 147 83.114 153.389 79.157 163.28 L 74.548 174.803 L 71.949 181.301 C 66.371 183.422 62.389 188.778 62.389 195.1 L 62.389 206.2 C 62.389 209.928 63.814 213.292 66.089 215.896 L 66.089 228.4 C 66.089 232.486 69.403 235.8 73.489 235.8 L 80.889 235.8 C 84.975 235.8 88.289 232.486 88.289 228.4 L 88.289 221 L 147.489 221 L 147.489 228.4 C 147.489 232.486 150.803 235.8 154.889 235.8 L 162.289 235.8 C 166.375 235.8 169.689 232.486 169.689 228.4 L 169.689 215.896 C 171.965 213.295 173.389 209.93 173.389 206.2 L 173.389 195.1 C 173.389 188.778 169.407 183.422 163.829 181.301 L 163.829 181.301 Z  M 92.898 168.777 C 94.584 164.563 98.665 161.8 103.205 161.8 L 132.573 161.8 C 137.113 161.8 141.194 164.563 142.88 168.777 L 147.489 180.3 L 88.289 180.3 L 92.898 168.777 Z  M 80.889 206.154 C 76.449 206.154 73.489 203.203 73.489 198.777 C 73.489 194.351 76.449 191.4 80.889 191.4 C 85.329 191.4 91.989 198.039 91.989 202.465 C 91.989 206.891 85.329 206.154 80.889 206.154 Z  M 154.889 206.154 C 150.449 206.154 143.789 206.891 143.789 202.465 C 143.789 198.039 150.449 191.4 154.889 191.4 C 159.329 191.4 162.289 194.351 162.289 198.777 C 162.289 203.203 159.329 206.154 154.889 206.154 L 154.889 206.154 Z " fill="rgb(0,0,0)"/><path d=" M 317.78 228.58 L 317.78 228.58 Q 306.12 228.58 297.595 224.015 L 297.595 224.015 L 297.595 224.015 Q 289.07 219.45 284.505 211.035 L 284.505 211.035 L 284.505 211.035 Q 279.94 202.62 279.94 191.18 L 279.94 191.18 L 279.94 191.18 Q 279.94 178.53 285.11 168.96 L 285.11 168.96 L 285.11 168.96 Q 290.28 159.39 299.685 154.22 L 299.685 154.22 L 299.685 154.22 Q 309.09 149.05 321.52 149.05 L 321.52 149.05 L 321.52 149.05 Q 328.45 149.05 334.335 150.645 L 334.335 150.645 L 334.335 150.645 Q 340.22 152.24 344.18 154.22 L 344.18 154.22 L 344.18 154.22 Q 349.24 157.3 349.24 162.47 L 349.24 162.47 L 349.24 162.47 Q 349.24 165.66 347.095 168.025 L 347.095 168.025 L 347.095 168.025 Q 344.95 170.39 341.76 170.39 L 341.76 170.39 L 341.76 170.39 Q 339.45 170.39 337.03 168.96 L 337.03 168.96 L 337.03 168.96 Q 329.11 165.11 322.51 165.11 L 322.51 165.11 L 322.51 165.11 Q 311.95 165.11 306.23 172.04 L 306.23 172.04 L 306.23 172.04 Q 300.51 178.97 300.51 191.18 L 300.51 191.18 L 300.51 191.18 Q 300.51 201.63 305.02 207.075 L 305.02 207.075 L 305.02 207.075 Q 309.53 212.52 318.33 212.52 L 318.33 212.52 L 318.33 212.52 Q 322.29 212.52 325.48 211.475 L 325.48 211.475 L 325.48 211.475 Q 328.67 210.43 333.95 208.34 L 333.95 208.34 L 333.95 208.34 Q 336.37 207.13 338.35 207.13 L 338.35 207.13 L 338.35 207.13 Q 341.32 207.13 343.19 209.275 L 343.19 209.275 L 343.19 209.275 Q 345.06 211.42 345.06 214.39 L 345.06 214.39 L 345.06 214.39 Q 345.06 216.59 344.015 218.68 L 344.015 218.68 L 344.015 218.68 Q 342.97 220.77 340.77 222.42 L 340.77 222.42 L 340.77 222.42 Q 337.47 224.84 331.145 226.71 L 331.145 226.71 L 331.145 226.71 Q 324.82 228.58 317.78 228.58 L 317.78 228.58 L 317.78 228.58 Z  M 428.34 216.15 L 428.34 216.15 Q 429 217.8 429 219.34 L 429 219.34 L 429 219.34 Q 429 223.08 425.92 225.665 L 425.92 225.665 L 425.92 225.665 Q 422.84 228.25 418.99 228.25 L 418.99 228.25 L 418.99 228.25 Q 416.46 228.25 414.37 226.875 L 414.37 226.875 L 414.37 226.875 Q 412.28 225.5 411.29 222.75 L 411.29 222.75 L 407.33 211.53 L 372.9 211.53 L 367.29 222.64 L 367.29 222.64 Q 365.86 225.39 363.605 226.71 L 363.605 226.71 L 363.605 226.71 Q 361.35 228.03 358.82 228.03 L 358.82 228.03 L 358.82 228.03 Q 355.19 228.03 352.385 225.72 L 352.385 225.72 L 352.385 225.72 Q 349.58 223.41 349.58 219.89 L 349.58 219.89 L 349.58 219.89 Q 349.58 217.69 350.9 215.27 L 350.9 215.27 L 383.57 155.54 L 383.57 155.54 Q 385.22 152.46 388.19 150.865 L 388.19 150.865 L 388.19 150.865 Q 391.16 149.27 394.57 149.27 L 394.57 149.27 L 394.57 149.27 Q 397.98 149.27 400.73 150.865 L 400.73 150.865 L 400.73 150.865 Q 403.48 152.46 404.58 155.43 L 404.58 155.43 L 428.34 216.15 L 428.34 216.15 Z  M 393.25 171.38 L 380.6 196.35 L 402.05 196.35 L 393.25 171.38 L 393.25 171.38 Z  M 497.1 205.04 L 502.05 215.49 L 502.05 215.49 Q 503.04 217.58 503.04 219.56 L 503.04 219.56 L 503.04 219.56 Q 503.04 223.41 499.85 226.105 L 499.85 226.105 L 499.85 226.105 Q 496.66 228.8 492.7 228.8 L 492.7 228.8 L 492.7 228.8 Q 489.95 228.8 487.64 227.37 L 487.64 227.37 L 487.64 227.37 Q 485.33 225.94 483.9 223.08 L 483.9 223.08 L 474.44 202.84 L 474.44 202.84 Q 472.46 198.55 467.51 198.55 L 467.51 198.55 L 460.47 198.55 L 459.04 218.13 L 459.04 218.13 Q 458.71 222.75 455.85 225.5 L 455.85 225.5 L 455.85 225.5 Q 452.99 228.25 448.37 228.25 L 448.37 228.25 L 448.37 228.25 Q 443.75 228.25 441.22 225.555 L 441.22 225.555 L 441.22 225.555 Q 438.69 222.86 439.13 218.24 L 439.13 218.24 L 443.75 159.39 L 443.75 159.39 Q 444.19 154.88 446.775 152.46 L 446.775 152.46 L 446.775 152.46 Q 449.36 150.04 453.87 150.04 L 453.87 150.04 L 482.14 150.04 L 482.14 150.04 Q 494.35 150.04 501.17 156.255 L 501.17 156.255 L 501.17 156.255 Q 507.99 162.47 507.99 172.81 L 507.99 172.81 L 507.99 172.81 Q 507.99 183.15 503.205 189.145 L 503.205 189.145 L 503.205 189.145 Q 498.42 195.14 488.3 197.01 L 488.3 197.01 L 488.3 197.01 Q 491.27 197.78 493.305 199.65 L 493.305 199.65 L 493.305 199.65 Q 495.34 201.52 497.1 205.04 L 497.1 205.04 L 497.1 205.04 Z  M 461.68 183.37 L 478.07 183.37 L 478.07 183.37 Q 483.46 183.37 486.265 180.95 L 486.265 180.95 L 486.265 180.95 Q 489.07 178.53 489.07 174.02 L 489.07 174.02 L 489.07 174.02 Q 489.07 169.62 486.705 167.475 L 486.705 167.475 L 486.705 167.475 Q 484.34 165.33 479.39 165.33 L 479.39 165.33 L 463 165.33 L 461.68 183.37 L 461.68 183.37 Z  M 590.61 216.15 L 590.61 216.15 Q 591.27 217.8 591.27 219.34 L 591.27 219.34 L 591.27 219.34 Q 591.27 223.08 588.19 225.665 L 588.19 225.665 L 588.19 225.665 Q 585.11 228.25 581.26 228.25 L 581.26 228.25 L 581.26 228.25 Q 578.73 228.25 576.64 226.875 L 576.64 226.875 L 576.64 226.875 Q 574.55 225.5 573.56 222.75 L 573.56 222.75 L 569.6 211.53 L 535.17 211.53 L 529.56 222.64 L 529.56 222.64 Q 528.13 225.39 525.875 226.71 L 525.875 226.71 L 525.875 226.71 Q 523.62 228.03 521.09 228.03 L 521.09 228.03 L 521.09 228.03 Q 517.46 228.03 514.655 225.72 L 514.655 225.72 L 514.655 225.72 Q 511.85 223.41 511.85 219.89 L 511.85 219.89 L 511.85 219.89 Q 511.85 217.69 513.17 215.27 L 513.17 215.27 L 545.84 155.54 L 545.84 155.54 Q 547.49 152.46 550.46 150.865 L 550.46 150.865 L 550.46 150.865 Q 553.43 149.27 556.84 149.27 L 556.84 149.27 L 556.84 149.27 Q 560.25 149.27 563 150.865 L 563 150.865 L 563 150.865 Q 565.75 152.46 566.85 155.43 L 566.85 155.43 L 590.61 216.15 L 590.61 216.15 Z  M 555.52 171.38 L 542.87 196.35 L 564.32 196.35 L 555.52 171.38 L 555.52 171.38 Z  M 663 183.81 L 663 183.81 Q 666.52 183.81 668.39 185.735 L 668.39 185.735 L 668.39 185.735 Q 670.26 187.66 670.04 191.07 L 670.04 191.07 L 668.5 210.32 L 668.5 210.32 Q 668.06 215.82 667.015 218.735 L 667.015 218.735 L 667.015 218.735 Q 665.97 221.65 663.715 223.3 L 663.715 223.3 L 663.715 223.3 Q 661.46 224.95 656.95 226.27 L 656.95 226.27 L 656.95 226.27 Q 652.66 227.37 647.435 227.975 L 647.435 227.975 L 647.435 227.975 Q 642.21 228.58 637.48 228.58 L 637.48 228.58 L 637.48 228.58 Q 625.82 228.58 617.295 224.015 L 617.295 224.015 L 617.295 224.015 Q 608.77 219.45 604.15 210.925 L 604.15 210.925 L 604.15 210.925 Q 599.53 202.4 599.53 190.96 L 599.53 190.96 L 599.53 190.96 Q 599.53 178.31 604.7 168.85 L 604.7 168.85 L 604.7 168.85 Q 609.87 159.39 619.385 154.22 L 619.385 154.22 L 619.385 154.22 Q 628.9 149.05 641.66 149.05 L 641.66 149.05 L 641.66 149.05 Q 649.47 149.05 655.74 150.645 L 655.74 150.645 L 655.74 150.645 Q 662.01 152.24 665.86 154.33 L 665.86 154.33 L 665.86 154.33 Q 668.39 155.87 669.655 157.96 L 669.655 157.96 L 669.655 157.96 Q 670.92 160.05 670.92 162.36 L 670.92 162.36 L 670.92 162.36 Q 670.92 165.55 668.72 167.97 L 668.72 167.97 L 668.72 167.97 Q 666.52 170.39 663.33 170.39 L 663.33 170.39 L 663.33 170.39 Q 661.02 170.39 658.49 168.85 L 658.49 168.85 L 658.49 168.85 Q 654.75 166.98 651.12 165.99 L 651.12 165.99 L 651.12 165.99 Q 647.49 165 641.88 165 L 641.88 165 L 641.88 165 Q 631.54 165 625.765 171.985 L 625.765 171.985 L 625.765 171.985 Q 619.99 178.97 619.99 191.07 L 619.99 191.07 L 619.99 191.07 Q 619.99 201.85 625.05 207.515 L 625.05 207.515 L 625.05 207.515 Q 630.11 213.18 640.45 213.18 L 640.45 213.18 L 640.45 213.18 Q 645.07 213.18 650.35 211.86 L 650.35 211.86 L 651.45 197.67 L 644.19 197.67 L 644.19 197.67 Q 636.49 197.67 636.49 190.96 L 636.49 190.96 L 636.49 190.96 Q 636.49 187.66 638.745 185.735 L 638.745 185.735 L 638.745 185.735 Q 641 183.81 644.63 183.81 L 644.63 183.81 L 663 183.81 L 663 183.81 Z  M 733.74 165.66 L 706.02 165.66 L 704.81 180.4 L 730.33 180.4 L 730.33 180.4 Q 734.73 180.4 736.985 182.27 L 736.985 182.27 L 736.985 182.27 Q 739.24 184.14 739.24 187.55 L 739.24 187.55 L 739.24 187.55 Q 739.24 191.84 736.765 193.875 L 736.765 193.875 L 736.765 193.875 Q 734.29 195.91 729.12 195.91 L 729.12 195.91 L 703.6 195.91 L 702.28 211.97 L 730.11 211.97 L 730.11 211.97 Q 734.51 211.97 736.765 213.95 L 736.765 213.95 L 736.765 213.95 Q 739.02 215.93 739.02 219.34 L 739.02 219.34 L 739.02 219.34 Q 739.02 227.59 728.79 227.59 L 728.79 227.59 L 690.73 227.59 L 690.73 227.59 Q 686.22 227.59 683.965 225.17 L 683.965 225.17 L 683.965 225.17 Q 681.71 222.75 682.15 218.24 L 682.15 218.24 L 686.77 159.39 L 686.77 159.39 Q 687.21 154.88 689.85 152.46 L 689.85 152.46 L 689.85 152.46 Q 692.49 150.04 696.89 150.04 L 696.89 150.04 L 735.06 150.04 L 735.06 150.04 Q 739.46 150.04 741.715 151.965 L 741.715 151.965 L 741.715 151.965 Q 743.97 153.89 743.97 157.19 L 743.97 157.19 L 743.97 157.19 Q 743.97 165.66 733.74 165.66 L 733.74 165.66 L 733.74 165.66 Z  M 813.72 149.49 L 813.72 149.49 Q 818.01 149.49 820.485 152.24 L 820.485 152.24 L 820.485 152.24 Q 822.96 154.99 822.52 159.39 L 822.52 159.39 L 817.9 218.24 L 817.9 218.24 Q 817.46 222.75 814.655 225.5 L 814.655 225.5 L 814.655 225.5 Q 811.85 228.25 807.67 228.25 L 807.67 228.25 L 807.67 228.25 Q 802.39 228.25 800.3 225.06 L 800.3 225.06 L 770.38 184.03 L 767.63 218.13 L 767.63 218.13 Q 767.3 222.75 764.55 225.5 L 764.55 225.5 L 764.55 225.5 Q 761.8 228.25 757.4 228.25 L 757.4 228.25 L 757.4 228.25 Q 753.22 228.25 750.8 225.5 L 750.8 225.5 L 750.8 225.5 Q 748.38 222.75 748.82 218.24 L 748.82 218.24 L 753.44 159.39 L 753.44 159.39 Q 753.88 154.99 756.74 152.24 L 756.74 152.24 L 756.74 152.24 Q 759.6 149.49 763.78 149.49 L 763.78 149.49 L 763.78 149.49 Q 768.73 149.49 770.93 152.68 L 770.93 152.68 L 800.85 193.82 L 803.6 159.5 L 803.6 159.5 Q 803.93 154.99 806.735 152.24 L 806.735 152.24 L 806.735 152.24 Q 809.54 149.49 813.72 149.49 L 813.72 149.49 L 813.72 149.49 Z  M 859.93 228.14 L 859.93 228.14 Q 855.31 228.14 852.725 225.445 L 852.725 225.445 L 852.725 225.445 Q 850.14 222.75 850.58 218.24 L 850.58 218.24 L 854.76 166.43 L 839.14 166.43 L 839.14 166.43 Q 830.23 166.43 830.23 158.95 L 830.23 158.95 L 830.23 158.95 Q 830.23 154.22 832.76 152.13 L 832.76 152.13 L 832.76 152.13 Q 835.29 150.04 840.46 150.04 L 840.46 150.04 L 891.94 150.04 L 891.94 150.04 Q 900.85 150.04 900.85 157.63 L 900.85 157.63 L 900.85 157.63 Q 900.85 162.36 898.375 164.395 L 898.375 164.395 L 898.375 164.395 Q 895.9 166.43 890.62 166.43 L 890.62 166.43 L 875.11 166.43 L 870.93 218.13 L 870.93 218.13 Q 870.6 222.64 867.63 225.39 L 867.63 225.39 L 867.63 225.39 Q 864.66 228.14 859.93 228.14 L 859.93 228.14 L 859.93 228.14 Z  M 930.34 228.58 L 930.34 228.58 Q 921.87 228.58 914.61 226.93 L 914.61 226.93 L 914.61 226.93 Q 907.35 225.28 902.84 222.75 L 902.84 222.75 L 902.84 222.75 Q 900.64 221.32 899.485 219.175 L 899.485 219.175 L 899.485 219.175 Q 898.33 217.03 898.33 214.72 L 898.33 214.72 L 898.33 214.72 Q 898.33 211.64 900.2 209.33 L 900.2 209.33 L 900.2 209.33 Q 902.07 207.02 905.15 207.02 L 905.15 207.02 L 905.15 207.02 Q 907.68 207.02 910.32 208.56 L 910.32 208.56 L 910.32 208.56 Q 913.84 210.32 919.395 211.695 L 919.395 211.695 L 919.395 211.695 Q 924.95 213.07 931.22 213.07 L 931.22 213.07 L 931.22 213.07 Q 937.49 213.07 940.79 211.42 L 940.79 211.42 L 940.79 211.42 Q 944.09 209.77 944.09 206.58 L 944.09 206.58 L 944.09 206.58 Q 944.09 203.17 940.46 201.245 L 940.46 201.245 L 940.46 201.245 Q 936.83 199.32 929.24 197.12 L 929.24 197.12 L 929.24 197.12 Q 921.1 194.7 915.93 192.39 L 915.93 192.39 L 915.93 192.39 Q 910.76 190.08 907.02 185.515 L 907.02 185.515 L 907.02 185.515 Q 903.28 180.95 903.28 173.69 L 903.28 173.69 L 903.28 173.69 Q 903.28 166.32 907.405 160.71 L 907.405 160.71 L 907.405 160.71 Q 911.53 155.1 919.12 152.075 L 919.12 152.075 L 919.12 152.075 Q 926.71 149.05 936.83 149.05 L 936.83 149.05 L 936.83 149.05 Q 945.08 149.05 952.065 150.865 L 952.065 150.865 L 952.065 150.865 Q 959.05 152.68 963.01 155.76 L 963.01 155.76 L 963.01 155.76 Q 966.31 158.29 966.31 162.47 L 966.31 162.47 L 966.31 162.47 Q 966.31 165.66 964.275 168.025 L 964.275 168.025 L 964.275 168.025 Q 962.24 170.39 959.05 170.39 L 959.05 170.39 L 959.05 170.39 Q 956.3 170.39 953.77 168.74 L 953.77 168.74 L 953.77 168.74 Q 950.36 167.09 945.74 165.825 L 945.74 165.825 L 945.74 165.825 Q 941.12 164.56 936.28 164.56 L 936.28 164.56 L 936.28 164.56 Q 930.34 164.56 926.875 166.485 L 926.875 166.485 L 926.875 166.485 Q 923.41 168.41 923.41 171.82 L 923.41 171.82 L 923.41 171.82 Q 923.41 175.34 926.985 177.21 L 926.985 177.21 L 926.985 177.21 Q 930.56 179.08 938.37 181.39 L 938.37 181.39 L 938.37 181.39 Q 946.4 183.81 951.515 186.065 L 951.515 186.065 L 951.515 186.065 Q 956.63 188.32 960.37 192.72 L 960.37 192.72 L 960.37 192.72 Q 964.11 197.12 964.11 204.27 L 964.11 204.27 L 964.11 204.27 Q 964.11 215.93 955.31 222.255 L 955.31 222.255 L 955.31 222.255 Q 946.51 228.58 930.34 228.58 L 930.34 228.58 L 930.34 228.58 Z " fill="rgb(255,0,0)"/><path d=" M 155.88 181.301 L 153.281 174.803 L 148.672 163.28 C 144.716 153.389 135.278 147 124.625 147 L 95.256 147 C 84.604 147 75.165 153.389 71.208 163.28 L 66.599 174.803 L 64 181.301 C 58.422 183.422 54.44 188.778 54.44 195.1 L 54.44 206.2 C 54.44 209.928 55.865 213.292 58.14 215.896 L 58.14 228.4 C 58.14 232.486 61.454 235.8 65.54 235.8 L 72.94 235.8 C 77.026 235.8 80.34 232.486 80.34 228.4 L 80.34 221 L 139.54 221 L 139.54 228.4 C 139.54 232.486 142.854 235.8 146.94 235.8 L 154.34 235.8 C 158.426 235.8 161.74 232.486 161.74 228.4 L 161.74 215.896 C 164.016 213.295 165.44 209.93 165.44 206.2 L 165.44 195.1 C 165.44 188.778 161.458 183.422 155.88 181.301 L 155.88 181.301 Z  M 84.949 168.777 C 86.635 164.563 90.716 161.8 95.256 161.8 L 124.625 161.8 C 129.164 161.8 133.246 164.563 134.931 168.777 L 139.54 180.3 L 80.34 180.3 L 84.949 168.777 Z  M 72.94 206.154 C 68.5 206.154 65.54 203.203 65.54 198.777 C 65.54 194.351 68.5 191.4 72.94 191.4 C 77.38 191.4 84.04 198.039 84.04 202.465 C 84.04 206.891 77.38 206.154 72.94 206.154 Z  M 146.94 206.154 C 142.5 206.154 135.84 206.891 135.84 202.465 C 135.84 198.039 142.5 191.4 146.94 191.4 C 151.38 191.4 154.34 194.351 154.34 198.777 C 154.34 203.203 151.38 206.154 146.94 206.154 L 146.94 206.154 Z " fill="rgb(255,255,255)"/><path d=" M 148.32 181.678 L 145.721 175.18 L 141.112 163.657 C 137.156 153.766 127.718 147.377 117.065 147.377 L 87.696 147.377 C 77.045 147.377 67.605 153.766 63.648 163.657 L 59.039 175.18 L 56.44 181.678 C 50.862 183.799 46.88 189.154 46.88 195.477 L 46.88 206.577 C 46.88 210.305 48.305 213.669 50.58 216.273 L 50.58 228.777 C 50.58 232.863 53.894 236.177 57.98 236.177 L 65.38 236.177 C 69.466 236.177 72.78 232.863 72.78 228.777 L 72.78 221.377 L 131.98 221.377 L 131.98 228.777 C 131.98 232.863 135.294 236.177 139.38 236.177 L 146.78 236.177 C 150.866 236.177 154.18 232.863 154.18 228.777 L 154.18 216.273 C 156.456 213.672 157.88 210.307 157.88 206.577 L 157.88 195.477 C 157.88 189.154 153.898 183.799 148.32 181.678 L 148.32 181.678 Z  M 77.389 169.154 C 79.075 164.94 83.156 162.177 87.696 162.177 L 117.065 162.177 C 121.604 162.177 125.686 164.94 127.371 169.154 L 131.98 180.677 L 72.78 180.677 L 77.389 169.154 Z  M 65.38 206.531 C 60.94 206.531 57.98 203.58 57.98 199.154 C 57.98 194.728 60.94 191.777 65.38 191.777 C 69.82 191.777 76.48 198.416 76.48 202.842 C 76.48 207.268 69.82 206.531 65.38 206.531 Z  M 139.38 206.531 C 134.94 206.531 128.28 207.268 128.28 202.842 C 128.28 198.416 134.94 191.777 139.38 191.777 C 143.82 191.777 146.78 194.728 146.78 199.154 C 146.78 203.58 143.82 206.531 139.38 206.531 L 139.38 206.531 Z " fill="rgb(255,0,0)"/><line x1="191" y1="175.154" x2="242" y2="175.154" vector-effect="non-scaling-stroke" stroke-width="2" stroke="rgb(209,209,209)" stroke-linejoin="miter" stroke-linecap="square" stroke-miterlimit="3"/><line x1="196" y1="187.678" x2="247" y2="187.678" vector-effect="non-scaling-stroke" stroke-width="2" stroke="rgb(139,139,139)" stroke-linejoin="miter" stroke-linecap="square" stroke-miterlimit="3"/><line x1="197" y1="201.477" x2="248" y2="201.477" vector-effect="non-scaling-stroke" stroke-width="2" stroke="rgb(209,209,209)" stroke-linejoin="miter" stroke-linecap="square" stroke-miterlimit="3"/><line x1="185.44" y1="214" x2="236.44" y2="214" vector-effect="non-scaling-stroke" stroke-width="2" stroke="rgb(139,139,139)" stroke-linejoin="miter" stroke-linecap="square" stroke-miterlimit="3"/><line x1="177.44" y1="164" x2="228.44" y2="164" vector-effect="non-scaling-stroke" stroke-width="2" stroke="rgb(139,139,139)" stroke-linejoin="miter" stroke-linecap="square" stroke-miterlimit="3"/></svg>