<?xml version="1.0" encoding="UTF-8" standalone="no"?><!-- Generator: Gravit.io --><svg xmlns="http://www.w3.org/2000/svg" xmlns:xlink="http://www.w3.org/1999/xlink" style="isolation:isolate" viewBox="50 120.234 671 128.906" width="671pt" height="128.906pt"><path d=" M 237.132 210.844 L 237.132 210.844 L 237.132 210.844 Q 241.429 210.844 244.114 208.481 L 244.114 208.481 L 244.114 208.481 Q 246.8 206.118 246.907 202.197 L 246.907 202.197 L 261.463 202.197 L 261.463 202.197 Q 261.409 208.105 258.24 213.019 L 258.24 213.019 L 258.24 213.019 Q 255.071 217.934 249.566 220.646 L 249.566 220.646 L 249.566 220.646 Q 244.061 223.359 237.4 223.359 L 237.4 223.359 L 237.4 223.359 Q 224.939 223.359 217.742 215.436 L 217.742 215.436 L 217.742 215.436 Q 210.545 207.514 210.545 193.549 L 210.545 193.549 L 210.545 192.529 L 210.545 192.529 Q 210.545 179.101 217.688 171.098 L 217.688 171.098 L 217.688 171.098 Q 224.832 163.095 237.293 163.095 L 237.293 163.095 L 237.293 163.095 Q 248.196 163.095 254.776 169.299 L 254.776 169.299 L 254.776 169.299 Q 261.355 175.502 261.463 185.815 L 261.463 185.815 L 246.907 185.815 L 246.907 185.815 Q 246.8 181.303 244.114 178.483 L 244.114 178.483 L 244.114 178.483 Q 241.429 175.664 237.024 175.664 L 237.024 175.664 L 237.024 175.664 Q 231.6 175.664 228.833 179.611 L 228.833 179.611 L 228.833 179.611 Q 226.067 183.559 226.067 192.421 L 226.067 192.421 L 226.067 194.033 L 226.067 194.033 Q 226.067 203.002 228.807 206.923 L 228.807 206.923 L 228.807 206.923 Q 231.546 210.844 237.132 210.844 Z  M 321.686 222.285 L 306.002 222.285 L 306.002 222.285 Q 304.928 220.19 304.444 217.075 L 304.444 217.075 L 304.444 217.075 Q 298.805 223.359 289.781 223.359 L 289.781 223.359 L 289.781 223.359 Q 281.241 223.359 275.628 218.417 L 275.628 218.417 L 275.628 218.417 Q 270.016 213.476 270.016 205.956 L 270.016 205.956 L 270.016 205.956 Q 270.016 196.718 276.864 191.777 L 276.864 191.777 L 276.864 191.777 Q 283.712 186.835 296.656 186.782 L 296.656 186.782 L 303.8 186.782 L 303.8 183.452 L 303.8 183.452 Q 303.8 179.423 301.732 177.006 L 301.732 177.006 L 301.732 177.006 Q 299.664 174.589 295.206 174.589 L 295.206 174.589 L 295.206 174.589 Q 291.285 174.589 289.056 176.469 L 289.056 176.469 L 289.056 176.469 Q 286.827 178.349 286.827 181.625 L 286.827 181.625 L 271.305 181.625 L 271.305 181.625 Q 271.305 176.577 274.42 172.28 L 274.42 172.28 L 274.42 172.28 Q 277.535 167.983 283.229 165.539 L 283.229 165.539 L 283.229 165.539 Q 288.922 163.095 296.012 163.095 L 296.012 163.095 L 296.012 163.095 Q 306.754 163.095 313.065 168.493 L 313.065 168.493 L 313.065 168.493 Q 319.376 173.891 319.376 183.666 L 319.376 183.666 L 319.376 208.857 L 319.376 208.857 Q 319.43 217.128 321.686 221.372 L 321.686 221.372 L 321.686 222.285 L 321.686 222.285 Z  M 293.165 211.489 L 293.165 211.489 L 293.165 211.489 Q 296.603 211.489 299.503 209.958 L 299.503 209.958 L 299.503 209.958 Q 302.403 208.427 303.8 205.849 L 303.8 205.849 L 303.8 195.859 L 297.999 195.859 L 297.999 195.859 Q 286.344 195.859 285.592 203.915 L 285.592 203.915 L 285.538 204.829 L 285.538 204.829 Q 285.538 207.729 287.579 209.609 L 287.579 209.609 L 287.579 209.609 Q 289.62 211.489 293.165 211.489 Z  M 366.171 163.793 L 365.956 178.725 L 365.956 178.725 Q 362.787 178.295 360.37 178.295 L 360.37 178.295 L 360.37 178.295 Q 351.562 178.295 348.822 184.257 L 348.822 184.257 L 348.822 222.285 L 333.3 222.285 L 333.3 164.169 L 347.963 164.169 L 348.393 171.098 L 348.393 171.098 Q 353.065 163.095 361.337 163.095 L 361.337 163.095 L 361.337 163.095 Q 363.915 163.095 366.171 163.793 L 366.171 163.793 L 366.171 163.793 Z " fill="rgb(209,209,209)"/><path d=" M 424.782 222.285 L 409.099 222.285 L 409.099 222.285 Q 408.024 220.19 407.541 217.075 L 407.541 217.075 L 407.541 217.075 Q 401.901 223.359 392.878 223.359 L 392.878 223.359 L 392.878 223.359 Q 384.338 223.359 378.725 218.417 L 378.725 218.417 L 378.725 218.417 Q 373.112 213.476 373.112 205.956 L 373.112 205.956 L 373.112 205.956 Q 373.112 196.718 379.96 191.777 L 379.96 191.777 L 379.96 191.777 Q 386.809 186.835 399.753 186.782 L 399.753 186.782 L 406.896 186.782 L 406.896 183.452 L 406.896 183.452 Q 406.896 179.423 404.829 177.006 L 404.829 177.006 L 404.829 177.006 Q 402.761 174.589 398.303 174.589 L 398.303 174.589 L 398.303 174.589 Q 394.382 174.589 392.153 176.469 L 392.153 176.469 L 392.153 176.469 Q 389.924 178.349 389.924 181.625 L 389.924 181.625 L 374.401 181.625 L 374.401 181.625 Q 374.401 176.577 377.517 172.28 L 377.517 172.28 L 377.517 172.28 Q 380.632 167.983 386.325 165.539 L 386.325 165.539 L 386.325 165.539 Q 392.019 163.095 399.108 163.095 L 399.108 163.095 L 399.108 163.095 Q 409.851 163.095 416.162 168.493 L 416.162 168.493 L 416.162 168.493 Q 422.473 173.891 422.473 183.666 L 422.473 183.666 L 422.473 208.857 L 422.473 208.857 Q 422.526 217.128 424.782 221.372 L 424.782 221.372 L 424.782 222.285 L 424.782 222.285 Z  M 396.262 211.489 L 396.262 211.489 L 396.262 211.489 Q 399.699 211.489 402.6 209.958 L 402.6 209.958 L 402.6 209.958 Q 405.5 208.427 406.896 205.849 L 406.896 205.849 L 406.896 195.859 L 401.096 195.859 L 401.096 195.859 Q 389.44 195.859 388.688 203.915 L 388.688 203.915 L 388.635 204.829 L 388.635 204.829 Q 388.635 207.729 390.676 209.609 L 390.676 209.609 L 390.676 209.609 Q 392.717 211.489 396.262 211.489 Z  M 434.141 193.442 L 434.141 192.797 L 434.141 192.797 Q 434.141 179.423 440.505 171.259 L 440.505 171.259 L 440.505 171.259 Q 446.87 163.095 457.666 163.095 L 457.666 163.095 L 457.666 163.095 Q 467.227 163.095 472.544 169.648 L 472.544 169.648 L 473.188 164.169 L 487.261 164.169 L 487.261 220.351 L 487.261 220.351 Q 487.261 227.978 483.796 233.618 L 483.796 233.618 L 483.796 233.618 Q 480.332 239.257 474.048 242.211 L 474.048 242.211 L 474.048 242.211 Q 467.764 245.165 459.331 245.165 L 459.331 245.165 L 459.331 245.165 Q 452.939 245.165 446.87 242.614 L 446.87 242.614 L 446.87 242.614 Q 440.801 240.063 437.686 236.035 L 437.686 236.035 L 444.561 226.581 L 444.561 226.581 Q 450.361 233.08 458.633 233.08 L 458.633 233.08 L 458.633 233.08 Q 464.81 233.08 468.247 229.777 L 468.247 229.777 L 468.247 229.777 Q 471.685 226.474 471.685 220.405 L 471.685 220.405 L 471.685 217.289 L 471.685 217.289 Q 466.313 223.359 457.559 223.359 L 457.559 223.359 L 457.559 223.359 Q 447.085 223.359 440.613 215.168 L 440.613 215.168 L 440.613 215.168 Q 434.141 206.977 434.141 193.442 L 434.141 193.442 L 434.141 193.442 Z  M 449.663 193.925 L 449.663 193.925 L 449.663 193.925 Q 449.663 201.821 452.832 206.306 L 452.832 206.306 L 452.832 206.306 Q 456.001 210.79 461.533 210.79 L 461.533 210.79 L 461.533 210.79 Q 468.623 210.79 471.685 205.473 L 471.685 205.473 L 471.685 181.035 L 471.685 181.035 Q 468.569 175.717 461.641 175.717 L 461.641 175.717 L 461.641 175.717 Q 456.055 175.717 452.859 180.283 L 452.859 180.283 L 452.859 180.283 Q 449.663 184.848 449.663 193.925 Z  M 527.933 223.359 L 527.933 223.359 L 527.933 223.359 Q 515.149 223.359 507.12 215.517 L 507.12 215.517 L 507.12 215.517 Q 499.09 207.675 499.09 194.623 L 499.09 194.623 L 499.09 193.12 L 499.09 193.12 Q 499.09 184.365 502.474 177.463 L 502.474 177.463 L 502.474 177.463 Q 505.857 170.561 512.061 166.828 L 512.061 166.828 L 512.061 166.828 Q 518.265 163.095 526.214 163.095 L 526.214 163.095 L 526.214 163.095 Q 538.138 163.095 544.986 170.615 L 544.986 170.615 L 544.986 170.615 Q 551.834 178.134 551.834 191.938 L 551.834 191.938 L 551.834 198.276 L 514.827 198.276 L 514.827 198.276 Q 515.579 203.969 519.366 207.407 L 519.366 207.407 L 519.366 207.407 Q 523.152 210.844 528.953 210.844 L 528.953 210.844 L 528.953 210.844 Q 537.923 210.844 542.972 204.345 L 542.972 204.345 L 550.599 212.885 L 550.599 212.885 Q 547.107 217.827 541.146 220.593 L 541.146 220.593 L 541.146 220.593 Q 535.184 223.359 527.933 223.359 Z  M 526.16 175.664 L 526.16 175.664 L 526.16 175.664 Q 521.541 175.664 518.667 178.779 L 518.667 178.779 L 518.667 178.779 Q 515.794 181.894 514.988 187.695 L 514.988 187.695 L 536.58 187.695 L 536.58 186.459 L 536.58 186.459 Q 536.473 181.303 533.787 178.483 L 533.787 178.483 L 533.787 178.483 Q 531.102 175.664 526.16 175.664 Z  M 562.32 164.169 L 576.93 164.169 L 577.413 170.883 L 577.413 170.883 Q 583.644 163.095 594.117 163.095 L 594.117 163.095 L 594.117 163.095 Q 603.355 163.095 607.867 168.52 L 607.867 168.52 L 607.867 168.52 Q 612.379 173.945 612.486 184.741 L 612.486 184.741 L 612.486 222.285 L 596.964 222.285 L 596.964 185.117 L 596.964 185.117 Q 596.964 180.175 594.815 177.946 L 594.815 177.946 L 594.815 177.946 Q 592.667 175.717 587.672 175.717 L 587.672 175.717 L 587.672 175.717 Q 581.119 175.717 577.843 181.303 L 577.843 181.303 L 577.843 222.285 L 562.32 222.285 L 562.32 164.169 L 562.32 164.169 Z  M 629.311 149.882 L 644.833 149.882 L 644.833 164.169 L 654.77 164.169 L 654.77 175.556 L 644.833 175.556 L 644.833 204.56 L 644.833 204.56 Q 644.833 207.783 646.068 209.179 L 646.068 209.179 L 646.068 209.179 Q 647.304 210.576 650.795 210.576 L 650.795 210.576 L 650.795 210.576 Q 653.373 210.576 655.36 210.2 L 655.36 210.2 L 655.36 221.962 L 655.36 221.962 Q 650.795 223.359 645.961 223.359 L 645.961 223.359 L 645.961 223.359 Q 629.633 223.359 629.311 206.87 L 629.311 206.87 L 629.311 175.556 L 620.824 175.556 L 620.824 164.169 L 629.311 164.169 L 629.311 149.882 L 629.311 149.882 Z  M 696.892 206.225 L 696.892 206.225 L 696.892 206.225 Q 696.892 203.378 694.072 201.74 L 694.072 201.74 L 694.072 201.74 Q 691.252 200.102 685.021 198.813 L 685.021 198.813 L 685.021 198.813 Q 664.289 194.462 664.289 181.196 L 664.289 181.196 L 664.289 181.196 Q 664.289 173.461 670.708 168.278 L 670.708 168.278 L 670.708 168.278 Q 677.126 163.095 687.492 163.095 L 687.492 163.095 L 687.492 163.095 Q 698.557 163.095 705.19 168.305 L 705.19 168.305 L 705.19 168.305 Q 711.823 173.515 711.823 181.84 L 711.823 181.84 L 696.301 181.84 L 696.301 181.84 Q 696.301 178.51 694.152 176.335 L 694.152 176.335 L 694.152 176.335 Q 692.004 174.16 687.438 174.16 L 687.438 174.16 L 687.438 174.16 Q 683.518 174.16 681.369 175.932 L 681.369 175.932 L 681.369 175.932 Q 679.221 177.705 679.221 180.444 L 679.221 180.444 L 679.221 180.444 Q 679.221 183.022 681.665 184.606 L 681.665 184.606 L 681.665 184.606 Q 684.108 186.191 689.909 187.346 L 689.909 187.346 L 689.909 187.346 Q 695.71 188.5 699.685 189.951 L 699.685 189.951 L 699.685 189.951 Q 711.984 194.462 711.984 205.58 L 711.984 205.58 L 711.984 205.58 Q 711.984 213.53 705.163 218.444 L 705.163 218.444 L 705.163 218.444 Q 698.342 223.359 687.546 223.359 L 687.546 223.359 L 687.546 223.359 Q 680.241 223.359 674.575 220.754 L 674.575 220.754 L 674.575 220.754 Q 668.908 218.149 665.686 213.61 L 665.686 213.61 L 665.686 213.61 Q 662.463 209.072 662.463 203.808 L 662.463 203.808 L 677.18 203.808 L 677.18 203.808 Q 677.395 207.944 680.241 210.146 L 680.241 210.146 L 680.241 210.146 Q 683.088 212.348 687.868 212.348 L 687.868 212.348 L 687.868 212.348 Q 692.326 212.348 694.609 210.656 L 694.609 210.656 L 694.609 210.656 Q 696.892 208.964 696.892 206.225 Z " fill="rgb(0,0,0)"/><path d=" M 161.44 174.301 L 158.841 167.803 L 154.232 156.28 C 150.275 146.389 140.838 140 130.184 140 L 100.816 140 C 90.164 140 80.725 146.389 76.768 156.28 L 72.159 167.803 L 69.56 174.301 C 63.982 176.422 60 181.778 60 188.1 L 60 199.2 C 60 202.928 61.424 206.292 63.7 208.896 L 63.7 221.4 C 63.7 225.486 67.014 228.8 71.1 228.8 L 78.5 228.8 C 82.586 228.8 85.9 225.486 85.9 221.4 L 85.9 214 L 145.1 214 L 145.1 221.4 C 145.1 225.486 148.414 228.8 152.5 228.8 L 159.9 228.8 C 163.986 228.8 167.3 225.486 167.3 221.4 L 167.3 208.896 C 169.575 206.295 171 202.93 171 199.2 L 171 188.1 C 171 181.778 167.018 176.422 161.44 174.301 L 161.44 174.301 Z  M 90.509 161.777 C 92.195 157.563 96.276 154.8 100.816 154.8 L 130.184 154.8 C 134.724 154.8 138.805 157.563 140.491 161.777 L 145.1 173.3 L 85.9 173.3 L 90.509 161.777 Z  M 78.5 199.154 C 74.06 199.154 71.1 196.203 71.1 191.777 C 71.1 187.351 74.06 184.4 78.5 184.4 C 82.94 184.4 89.6 191.039 89.6 195.465 C 89.6 199.891 82.94 199.154 78.5 199.154 Z  M 152.5 199.154 C 148.06 199.154 141.4 199.891 141.4 195.465 C 141.4 191.039 148.06 184.4 152.5 184.4 C 156.94 184.4 159.9 187.351 159.9 191.777 C 159.9 196.203 156.94 199.154 152.5 199.154 L 152.5 199.154 Z " fill="rgb(209,209,209)"/><path d=" M 156.44 179.301 L 153.841 172.803 L 149.232 161.28 C 145.275 151.389 135.838 145 125.184 145 L 95.816 145 C 85.164 145 75.725 151.389 71.768 161.28 L 67.159 172.803 L 64.56 179.301 C 58.982 181.422 55 186.778 55 193.1 L 55 204.2 C 55 207.928 56.425 211.292 58.7 213.896 L 58.7 226.4 C 58.7 230.486 62.014 233.8 66.1 233.8 L 73.5 233.8 C 77.586 233.8 80.9 230.486 80.9 226.4 L 80.9 219 L 140.1 219 L 140.1 226.4 C 140.1 230.486 143.414 233.8 147.5 233.8 L 154.9 233.8 C 158.986 233.8 162.3 230.486 162.3 226.4 L 162.3 213.896 C 164.575 211.295 166 207.93 166 204.2 L 166 193.1 C 166 186.778 162.018 181.422 156.44 179.301 L 156.44 179.301 Z  M 85.509 166.777 C 87.195 162.563 91.276 159.8 95.816 159.8 L 125.184 159.8 C 129.724 159.8 133.805 162.563 135.491 166.777 L 140.1 178.3 L 80.9 178.3 L 85.509 166.777 Z  M 73.5 204.154 C 69.06 204.154 66.1 201.203 66.1 196.777 C 66.1 192.351 69.06 189.4 73.5 189.4 C 77.94 189.4 84.6 196.039 84.6 200.465 C 84.6 204.891 77.94 204.154 73.5 204.154 Z  M 147.5 204.154 C 143.06 204.154 136.4 204.891 136.4 200.465 C 136.4 196.039 143.06 189.4 147.5 189.4 C 151.94 189.4 154.9 192.351 154.9 196.777 C 154.9 201.203 151.94 204.154 147.5 204.154 L 147.5 204.154 Z " fill="rgb(116,116,116)"/><path d=" M 151.44 184.301 L 148.841 177.803 L 144.232 166.28 C 140.275 156.389 130.838 150 120.184 150 L 90.816 150 C 80.164 150 70.725 156.389 66.768 166.28 L 62.159 177.803 L 59.56 184.301 C 53.982 186.422 50 191.778 50 198.1 L 50 209.2 C 50 212.928 51.424 216.292 53.7 218.896 L 53.7 231.4 C 53.7 235.486 57.014 238.8 61.1 238.8 L 68.5 238.8 C 72.586 238.8 75.9 235.486 75.9 231.4 L 75.9 224 L 135.1 224 L 135.1 231.4 C 135.1 235.486 138.414 238.8 142.5 238.8 L 149.9 238.8 C 153.986 238.8 157.3 235.486 157.3 231.4 L 157.3 218.896 C 159.575 216.295 161 212.93 161 209.2 L 161 198.1 C 161 191.778 157.018 186.422 151.44 184.301 L 151.44 184.301 Z  M 80.509 171.777 C 82.195 167.563 86.276 164.8 90.816 164.8 L 120.184 164.8 C 124.724 164.8 128.805 167.563 130.491 171.777 L 135.1 183.3 L 75.9 183.3 L 80.509 171.777 Z  M 68.5 209.154 C 64.06 209.154 61.1 206.203 61.1 201.777 C 61.1 197.351 64.06 194.4 68.5 194.4 C 72.94 194.4 79.6 201.039 79.6 205.465 C 79.6 209.891 72.94 209.154 68.5 209.154 Z  M 142.5 209.154 C 138.06 209.154 131.4 209.891 131.4 205.465 C 131.4 201.039 138.06 194.4 142.5 194.4 C 146.94 194.4 149.9 197.351 149.9 201.777 C 149.9 206.203 146.94 209.154 142.5 209.154 L 142.5 209.154 Z " fill="rgb(0,0,0)"/><line x1="514" y1="238.8" x2="709" y2="238.8" vector-effect="non-scaling-stroke" stroke-width="5" stroke="rgb(116,116,116)" stroke-linejoin="miter" stroke-linecap="square" stroke-miterlimit="3"/></svg>