<?xml version="1.0" encoding="UTF-8" standalone="no"?><!-- Generator: Gravit.io --><svg xmlns="http://www.w3.org/2000/svg" xmlns:xlink="http://www.w3.org/1999/xlink" style="isolation:isolate" viewBox="452 303 296 105.15"><path d=" M 491.384 327.048 L 490.736 336.696 L 473.168 336.696 L 473.168 336.696 Q 469.712 336.696 469.712 339.792 L 469.712 339.792 L 469.712 346.776 L 488.072 346.776 L 488.072 356.136 L 469.712 356.136 L 469.712 376.08 L 456.176 376.08 L 456.176 336.984 L 456.176 336.984 Q 456.176 332.088 459.344 329.136 L 459.344 329.136 L 459.344 329.136 Q 462.512 326.184 467.624 326.184 L 467.624 326.184 L 467.624 326.184 Q 484.688 326.184 491.384 327.048 L 491.384 327.048 L 491.384 327.048 Z  M 511.464 326.4 L 511.464 376.08 L 498.072 376.08 L 498.072 326.4 L 511.464 326.4 L 511.464 326.4 Z  M 552.64 326.4 L 565.168 326.4 L 565.168 371.328 L 565.168 371.328 Q 565.168 376.08 560.488 376.08 L 560.488 376.08 L 554.08 376.08 L 554.08 376.08 Q 552.136 376.08 551.056 375.18 L 551.056 375.18 L 551.056 375.18 Q 549.976 374.28 548.824 372.12 L 548.824 372.12 L 537.016 350.808 L 537.016 350.808 Q 535.072 347.136 533.776 342.672 L 533.776 342.672 L 533.2 342.672 L 533.2 342.672 Q 533.776 347.136 533.776 351.168 L 533.776 351.168 L 533.776 376.08 L 521.176 376.08 L 521.176 331.152 L 521.176 331.152 Q 521.176 326.4 525.928 326.4 L 525.928 326.4 L 532.264 326.4 L 532.264 326.4 Q 534.208 326.4 535.252 327.3 L 535.252 327.3 L 535.252 327.3 Q 536.296 328.2 537.52 330.36 L 537.52 330.36 L 548.896 350.88 L 548.896 350.88 Q 550.696 354.12 552.64 359.16 L 552.64 359.16 L 553.216 359.16 L 553.216 359.16 Q 552.712 354.192 552.64 350.448 L 552.64 350.448 L 552.64 326.4 L 552.64 326.4 Z  M 603.176 326.4 L 616.712 326.4 L 616.712 376.08 L 603.176 376.08 L 603.176 354.624 L 588.344 354.624 L 588.344 376.08 L 574.88 376.08 L 574.88 326.4 L 588.344 326.4 L 588.344 344.76 L 603.176 344.76 L 603.176 326.4 L 603.176 326.4 Z  M 654.504 326.4 L 668.04 326.4 L 668.04 355.92 L 668.04 355.92 Q 668.04 367.512 663.468 372.3 L 663.468 372.3 L 663.468 372.3 Q 658.896 377.088 647.736 377.088 L 647.736 377.088 L 647.736 377.088 Q 635.784 377.088 630.888 372.3 L 630.888 372.3 L 630.888 372.3 Q 625.992 367.512 625.992 355.92 L 625.992 355.92 L 625.992 326.4 L 639.528 326.4 L 639.528 355.92 L 639.528 355.92 Q 639.528 362.256 641.112 364.488 L 641.112 364.488 L 641.112 364.488 Q 642.696 366.72 647.016 366.72 L 647.016 366.72 L 647.016 366.72 Q 651.336 366.72 652.92 364.488 L 652.92 364.488 L 652.92 364.488 Q 654.504 362.256 654.504 355.92 L 654.504 355.92 L 654.504 326.4 L 654.504 326.4 Z  M 706.84 350.088 L 706.84 350.088 L 706.84 350.52 L 706.84 350.52 Q 712.456 351.024 714.904 354.264 L 714.904 354.264 L 714.904 354.264 Q 717.352 357.504 717.352 363.696 L 717.352 363.696 L 717.352 363.696 Q 717.352 371.112 713.32 373.884 L 713.32 373.884 L 713.32 373.884 Q 709.288 376.656 699.856 376.656 L 699.856 376.656 L 699.856 376.656 Q 684.952 376.656 677.32 376.08 L 677.32 376.08 L 677.32 326.4 L 677.32 326.4 Q 684.232 325.824 697.552 325.824 L 697.552 325.824 L 697.552 325.824 Q 707.776 325.824 711.736 328.524 L 711.736 328.524 L 711.736 328.524 Q 715.696 331.224 715.696 338.784 L 715.696 338.784 L 715.696 338.784 Q 715.696 344.184 713.608 346.92 L 713.608 346.92 L 713.608 346.92 Q 711.52 349.656 706.84 350.088 Z  M 690.568 335.328 L 690.568 346.2 L 697.192 346.2 L 697.192 346.2 Q 700.504 346.2 701.656 345.084 L 701.656 345.084 L 701.656 345.084 Q 702.808 343.968 702.808 340.656 L 702.808 340.656 L 702.808 340.656 Q 702.808 337.416 701.584 336.372 L 701.584 336.372 L 701.584 336.372 Q 700.36 335.328 696.832 335.328 L 696.832 335.328 L 690.568 335.328 L 690.568 335.328 Z  M 690.568 354.48 L 690.568 367.08 L 697.48 367.152 L 697.48 367.152 Q 701.296 367.152 702.556 365.928 L 702.556 365.928 L 702.556 365.928 Q 703.816 364.704 703.816 361.032 L 703.816 361.032 L 703.816 361.032 Q 703.816 357.072 702.52 355.776 L 702.52 355.776 L 702.52 355.776 Q 701.224 354.48 697.336 354.48 L 697.336 354.48 L 690.568 354.48 L 690.568 354.48 Z  M 728.36 363.84 L 728.36 363.84 L 731.456 363.84 L 731.456 363.84 Q 734.048 363.84 735.02 364.812 L 735.02 364.812 L 735.02 364.812 Q 735.992 365.784 735.992 368.376 L 735.992 368.376 L 735.992 371.544 L 735.992 371.544 Q 735.992 374.136 735.02 375.108 L 735.02 375.108 L 735.02 375.108 Q 734.048 376.08 731.456 376.08 L 731.456 376.08 L 728.36 376.08 L 728.36 376.08 Q 725.768 376.08 724.796 375.108 L 724.796 375.108 L 724.796 375.108 Q 723.824 374.136 723.824 371.544 L 723.824 371.544 L 723.824 368.376 L 723.824 368.376 Q 723.824 365.784 724.796 364.812 L 724.796 364.812 L 724.796 364.812 Q 725.768 363.84 728.36 363.84 Z " fill="rgb(0,0,0)"/><path d=" M 588.094 392.869 L 591.672 402.838 L 591.734 403.08 L 591.805 402.838 L 595.383 392.869 L 596.438 392.869 L 592.203 404.244 L 591.281 404.244 L 587.047 392.869 L 588.094 392.869 L 588.094 392.869 Z  M 614.391 397.978 L 614.391 398.791 L 609.07 398.791 L 609.07 403.431 L 615.188 403.431 L 615.188 404.244 L 608.109 404.244 L 608.109 392.869 L 615.148 392.869 L 615.148 393.689 L 609.07 393.689 L 609.07 397.978 L 614.391 397.978 L 614.391 397.978 Z  M 635.68 392.869 L 635.68 404.244 L 634.719 404.244 L 628.18 394.509 L 628.18 404.244 L 627.211 404.244 L 627.211 392.869 L 628.18 392.869 L 634.727 402.611 L 634.727 392.869 L 635.68 392.869 L 635.68 392.869 Z  M 656.063 392.869 L 656.063 393.689 L 652.164 393.689 L 652.164 404.244 L 651.203 404.244 L 651.203 393.689 L 647.313 393.689 L 647.313 392.869 L 656.063 392.869 L 656.063 392.869 Z  M 674.766 392.869 L 675.734 392.869 L 675.734 400.634 L 675.734 400.634 Q 675.727 401.783 675.227 402.634 L 675.227 402.634 L 675.227 402.634 Q 674.727 403.486 673.816 403.943 L 673.816 403.943 L 673.816 403.943 Q 672.906 404.4 671.727 404.4 L 671.727 404.4 L 671.727 404.4 Q 669.93 404.4 668.848 403.42 L 668.848 403.42 L 668.848 403.42 Q 667.766 402.439 667.727 400.705 L 667.727 400.705 L 667.727 392.869 L 668.68 392.869 L 668.68 400.564 L 668.68 400.564 Q 668.68 402.002 669.5 402.795 L 669.5 402.795 L 669.5 402.795 Q 670.32 403.588 671.727 403.588 L 671.727 403.588 L 671.727 403.588 Q 673.133 403.588 673.949 402.791 L 673.949 402.791 L 673.949 402.791 Q 674.766 401.994 674.766 400.572 L 674.766 400.572 L 674.766 392.869 L 674.766 392.869 Z  M 695.414 404.244 L 692.664 399.509 L 689.359 399.509 L 689.359 404.244 L 688.391 404.244 L 688.391 392.869 L 692.086 392.869 L 692.086 392.869 Q 693.906 392.869 694.93 393.752 L 694.93 393.752 L 694.93 393.752 Q 695.953 394.634 695.953 396.22 L 695.953 396.22 L 695.953 396.22 Q 695.953 397.314 695.313 398.15 L 695.313 398.15 L 695.313 398.15 Q 694.672 398.986 693.594 399.306 L 693.594 399.306 L 696.438 404.142 L 696.438 404.244 L 695.414 404.244 L 695.414 404.244 Z  M 689.359 393.689 L 689.359 398.689 L 692.305 398.689 L 692.305 398.689 Q 693.516 398.689 694.25 398.002 L 694.25 398.002 L 694.25 398.002 Q 694.984 397.314 694.984 396.22 L 694.984 396.22 L 694.984 396.22 Q 694.984 395.017 694.219 394.353 L 694.219 394.353 L 694.219 394.353 Q 693.453 393.689 692.07 393.689 L 692.07 393.689 L 689.359 393.689 L 689.359 393.689 Z  M 714.852 397.978 L 714.852 398.791 L 709.531 398.791 L 709.531 403.431 L 715.648 403.431 L 715.648 404.244 L 708.57 404.244 L 708.57 392.869 L 715.609 392.869 L 715.609 393.689 L 709.531 393.689 L 709.531 397.978 L 714.852 397.978 L 714.852 397.978 Z  M 734.109 401.447 L 734.109 401.447 L 734.109 401.447 Q 734.109 400.502 733.445 399.951 L 733.445 399.951 L 733.445 399.951 Q 732.781 399.4 731.016 398.904 L 731.016 398.904 L 731.016 398.904 Q 729.25 398.408 728.438 397.822 L 728.438 397.822 L 728.438 397.822 Q 727.281 396.994 727.281 395.65 L 727.281 395.65 L 727.281 395.65 Q 727.281 394.345 728.355 393.529 L 728.355 393.529 L 728.355 393.529 Q 729.43 392.713 731.102 392.713 L 731.102 392.713 L 731.102 392.713 Q 732.234 392.713 733.129 393.15 L 733.129 393.15 L 733.129 393.15 Q 734.023 393.588 734.516 394.369 L 734.516 394.369 L 734.516 394.369 Q 735.008 395.15 735.008 396.111 L 735.008 396.111 L 734.039 396.111 L 734.039 396.111 Q 734.039 394.947 733.242 394.24 L 733.242 394.24 L 733.242 394.24 Q 732.445 393.533 731.102 393.533 L 731.102 393.533 L 731.102 393.533 Q 729.797 393.533 729.023 394.115 L 729.023 394.115 L 729.023 394.115 Q 728.25 394.697 728.25 395.634 L 728.25 395.634 L 728.25 395.634 Q 728.25 396.502 728.945 397.048 L 728.945 397.048 L 728.945 397.048 Q 729.641 397.595 731.172 398.013 L 731.172 398.013 L 731.172 398.013 Q 732.703 398.431 733.492 398.88 L 733.492 398.88 L 733.492 398.88 Q 734.281 399.33 734.68 399.955 L 734.68 399.955 L 734.68 399.955 Q 735.078 400.58 735.078 401.431 L 735.078 401.431 L 735.078 401.431 Q 735.078 402.775 734.004 403.588 L 734.004 403.588 L 734.004 403.588 Q 732.93 404.4 731.172 404.4 L 731.172 404.4 L 731.172 404.4 Q 729.969 404.4 728.965 403.97 L 728.965 403.97 L 728.965 403.97 Q 727.961 403.541 727.441 402.767 L 727.441 402.767 L 727.441 402.767 Q 726.922 401.994 726.922 400.994 L 726.922 400.994 L 727.883 400.994 L 727.883 400.994 Q 727.883 402.197 728.781 402.892 L 728.781 402.892 L 728.781 402.892 Q 729.68 403.588 731.172 403.588 L 731.172 403.588 L 731.172 403.588 Q 732.5 403.588 733.305 403.002 L 733.305 403.002 L 733.305 403.002 Q 734.109 402.416 734.109 401.447 Z  M 464.648 398.845 L 464.648 402.892 L 464.648 402.892 Q 464.148 403.603 463.082 404.002 L 463.082 404.002 L 463.082 404.002 Q 462.016 404.4 460.695 404.4 L 460.695 404.4 L 460.695 404.4 Q 459.359 404.4 458.32 403.759 L 458.32 403.759 L 458.32 403.759 Q 457.281 403.119 456.711 401.947 L 456.711 401.947 L 456.711 401.947 Q 456.141 400.775 456.133 399.259 L 456.133 399.259 L 456.133 397.822 L 456.133 397.822 Q 456.133 395.455 457.328 394.084 L 457.328 394.084 L 457.328 394.084 Q 458.523 392.713 460.539 392.713 L 460.539 392.713 L 460.539 392.713 Q 462.297 392.713 463.367 393.607 L 463.367 393.607 L 463.367 393.607 Q 464.438 394.502 464.641 396.072 L 464.641 396.072 L 463.68 396.072 L 463.68 396.072 Q 463.469 394.822 462.66 394.177 L 462.66 394.177 L 462.66 394.177 Q 461.852 393.533 460.547 393.533 L 460.547 393.533 L 460.547 393.533 Q 458.953 393.533 458.023 394.666 L 458.023 394.666 L 458.023 394.666 Q 457.094 395.798 457.094 397.861 L 457.094 397.861 L 457.094 399.205 L 457.094 399.205 Q 457.094 400.502 457.535 401.498 L 457.535 401.498 L 457.535 401.498 Q 457.977 402.494 458.801 403.041 L 458.801 403.041 L 458.801 403.041 Q 459.625 403.588 460.695 403.588 L 460.695 403.588 L 460.695 403.588 Q 461.938 403.588 462.828 403.197 L 462.828 403.197 L 462.828 403.197 Q 463.406 402.939 463.688 402.595 L 463.688 402.595 L 463.688 399.658 L 460.633 399.658 L 460.633 398.845 L 464.648 398.845 L 464.648 398.845 Z  M 478.344 392.869 L 478.344 403.431 L 483.961 403.431 L 483.961 404.244 L 477.375 404.244 L 477.375 392.869 L 478.344 392.869 L 478.344 392.869 Z  M 503.703 397.814 L 503.703 399.173 L 503.703 399.173 Q 503.703 400.744 503.16 401.931 L 503.16 401.931 L 503.16 401.931 Q 502.617 403.119 501.609 403.759 L 501.609 403.759 L 501.609 403.759 Q 500.602 404.4 499.281 404.4 L 499.281 404.4 L 499.281 404.4 Q 497.289 404.4 496.063 402.974 L 496.063 402.974 L 496.063 402.974 Q 494.836 401.548 494.836 399.127 L 494.836 399.127 L 494.836 397.955 L 494.836 397.955 Q 494.836 396.4 495.387 395.201 L 495.387 395.201 L 495.387 395.201 Q 495.938 394.002 496.945 393.357 L 496.945 393.357 L 496.945 393.357 Q 497.953 392.713 499.266 392.713 L 499.266 392.713 L 499.266 392.713 Q 500.578 392.713 501.582 393.345 L 501.582 393.345 L 501.582 393.345 Q 502.586 393.978 503.133 395.134 L 503.133 395.134 L 503.133 395.134 Q 503.68 396.291 503.703 397.814 L 503.703 397.814 L 503.703 397.814 Z  M 502.742 399.142 L 502.742 397.939 L 502.742 397.939 Q 502.742 395.884 501.813 394.72 L 501.813 394.72 L 501.813 394.72 Q 500.883 393.556 499.266 393.556 L 499.266 393.556 L 499.266 393.556 Q 497.68 393.556 496.738 394.724 L 496.738 394.724 L 496.738 394.724 Q 495.797 395.892 495.797 397.986 L 495.797 397.986 L 495.797 399.173 L 495.797 399.173 Q 495.797 401.197 496.734 402.38 L 496.734 402.38 L 496.734 402.38 Q 497.672 403.564 499.281 403.564 L 499.281 403.564 L 499.281 403.564 Q 500.914 403.564 501.828 402.396 L 501.828 402.396 L 501.828 402.396 Q 502.742 401.228 502.742 399.142 L 502.742 399.142 L 502.742 399.142 Z  M 519.93 404.244 L 516.125 404.244 L 516.125 392.869 L 519.484 392.869 L 519.484 392.869 Q 521.313 392.869 522.258 393.623 L 522.258 393.623 L 522.258 393.623 Q 523.203 394.377 523.203 395.845 L 523.203 395.845 L 523.203 395.845 Q 523.203 396.728 522.723 397.38 L 522.723 397.38 L 522.723 397.38 Q 522.242 398.033 521.406 398.314 L 521.406 398.314 L 521.406 398.314 Q 522.398 398.533 523.004 399.291 L 523.004 399.291 L 523.004 399.291 Q 523.609 400.048 523.609 401.041 L 523.609 401.041 L 523.609 401.041 Q 523.609 402.548 522.637 403.396 L 522.637 403.396 L 522.637 403.396 Q 521.664 404.244 519.93 404.244 L 519.93 404.244 L 519.93 404.244 Z  M 520.047 398.775 L 517.086 398.775 L 517.086 403.431 L 519.969 403.431 L 519.969 403.431 Q 521.203 403.431 521.926 402.802 L 521.926 402.802 L 521.926 402.802 Q 522.648 402.173 522.648 401.056 L 522.648 401.056 L 522.648 401.056 Q 522.648 400.002 521.957 399.388 L 521.957 399.388 L 521.957 399.388 Q 521.266 398.775 520.047 398.775 L 520.047 398.775 L 520.047 398.775 Z  M 517.086 393.689 L 517.086 397.97 L 519.711 397.97 L 519.711 397.97 Q 520.914 397.947 521.574 397.404 L 521.574 397.404 L 521.574 397.404 Q 522.234 396.861 522.234 395.822 L 522.234 395.822 L 522.234 395.822 Q 522.234 394.728 521.551 394.209 L 521.551 394.209 L 521.551 394.209 Q 520.867 393.689 519.484 393.689 L 519.484 393.689 L 517.086 393.689 L 517.086 393.689 Z  M 543.25 404.244 L 542.07 401.056 L 536.906 401.056 L 535.734 404.244 L 534.727 404.244 L 539.031 392.869 L 539.945 392.869 L 544.25 404.244 L 543.25 404.244 L 543.25 404.244 Z  M 539.484 394.041 L 537.203 400.236 L 541.766 400.236 L 539.484 394.041 L 539.484 394.041 Z  M 556.891 392.869 L 556.891 403.431 L 562.508 403.431 L 562.508 404.244 L 555.922 404.244 L 555.922 392.869 L 556.891 392.869 L 556.891 392.869 Z " fill="rgb(139,139,139)"/></svg>