<svg xmlns="http://www.w3.org/2000/svg" xmlns:xlink="http://www.w3.org/1999/xlink" viewBox="683.5 465 108.5 43.648"><title>Mark Logo</title><path d=" M 702.7 475 L 687.3 475 C 685.2 475 683.5 476.7 683.5 478.8 L 683.5 494.2 C 683.5 496.3 685.2 498 687.3 498 L 702.7 498 C 704.8 498 706.5 496.3 706.5 494.2 L 706.5 478.8 C 706.5 476.7 704.8 475 702.7 475 Z  M 695 494.7 C 693.4 494.7 688.6 489.5 688.6 484.9 C 688.6 481.3 691.5 478.4 695 478.4 C 698.5 478.4 701.4 481.3 701.4 484.9 C 701.4 489.4 696.6 494.7 695 494.7 Z " fill="rgb(86,0,255)"/><path d=" M 695.2 481.7 C 695.3 482 695.4 482.3 695.4 482.6 C 695.4 483.7 694.5 484.6 693.5 484.6 C 692.9 484.6 692.4 484.3 692 483.9 C 691.9 484.2 691.8 484.5 691.8 484.9 C 691.8 486.6 693.2 488.1 694.9 488.1 C 696.6 488.1 698 486.7 698 484.9 C 698.1 483.2 696.8 481.8 695.2 481.7 Z " fill="rgb(0,0,0)"/><path d=" M 734.216 481.256 L 734.216 481.256 Q 736.776 481.256 738.152 482.808 L 738.152 482.808 L 738.152 482.808 Q 739.528 484.36 739.528 487.88 L 739.528 487.88 L 739.528 495.272 L 739.528 495.272 Q 739.528 496.392 738.856 496.968 L 738.856 496.968 L 738.856 496.968 Q 738.184 497.544 737.128 497.544 L 737.128 497.544 L 737.128 497.544 Q 736.104 497.544 735.4 496.968 L 735.4 496.968 L 735.4 496.968 Q 734.696 496.392 734.696 495.272 L 734.696 495.272 L 734.696 487.816 L 734.696 487.816 Q 734.696 486.28 734.168 485.656 L 734.168 485.656 L 734.168 485.656 Q 733.64 485.032 732.552 485.032 L 732.552 485.032 L 732.552 485.032 Q 731.208 485.032 730.408 485.96 L 730.408 485.96 L 730.408 485.96 Q 729.608 486.888 729.608 488.552 L 729.608 488.552 L 729.608 495.272 L 729.608 495.272 Q 729.608 496.392 728.936 496.968 L 728.936 496.968 L 728.936 496.968 Q 728.264 497.544 727.208 497.544 L 727.208 497.544 L 727.208 497.544 Q 726.184 497.544 725.48 496.968 L 725.48 496.968 L 725.48 496.968 Q 724.776 496.392 724.776 495.272 L 724.776 495.272 L 724.776 487.816 L 724.776 487.816 Q 724.776 486.28 724.248 485.656 L 724.248 485.656 L 724.248 485.656 Q 723.72 485.032 722.632 485.032 L 722.632 485.032 L 722.632 485.032 Q 721.288 485.032 720.488 485.96 L 720.488 485.96 L 720.488 485.96 Q 719.688 486.888 719.688 488.552 L 719.688 488.552 L 719.688 495.272 L 719.688 495.272 Q 719.688 496.392 719 496.968 L 719 496.968 L 719 496.968 Q 718.312 497.544 717.288 497.544 L 717.288 497.544 L 717.288 497.544 Q 716.264 497.544 715.56 496.968 L 715.56 496.968 L 715.56 496.968 Q 714.856 496.392 714.856 495.272 L 714.856 495.272 L 714.856 483.528 L 714.856 483.528 Q 714.856 482.472 715.576 481.896 L 715.576 481.896 L 715.576 481.896 Q 716.296 481.32 717.32 481.32 L 717.32 481.32 L 717.32 481.32 Q 718.28 481.32 718.92 481.88 L 718.92 481.88 L 718.92 481.88 Q 719.56 482.44 719.56 483.432 L 719.56 483.432 L 719.56 483.752 L 719.56 483.752 Q 720.328 482.536 721.56 481.896 L 721.56 481.896 L 721.56 481.896 Q 722.792 481.256 724.36 481.256 L 724.36 481.256 L 724.36 481.256 Q 726.056 481.256 727.224 481.944 L 727.224 481.944 L 727.224 481.944 Q 728.392 482.632 729.032 484.168 L 729.032 484.168 L 729.032 484.168 Q 729.768 482.824 731.128 482.04 L 731.128 482.04 L 731.128 482.04 Q 732.488 481.256 734.216 481.256 L 734.216 481.256 L 734.216 481.256 Z  M 750.248 481.256 L 750.248 481.256 Q 753.704 481.256 755.368 482.936 L 755.368 482.936 L 755.368 482.936 Q 757.032 484.616 757.032 488.072 L 757.032 488.072 L 757.032 495.304 L 757.032 495.304 Q 757.032 496.36 756.424 496.952 L 756.424 496.952 L 756.424 496.952 Q 755.816 497.544 754.728 497.544 L 754.728 497.544 L 754.728 497.544 Q 753.704 497.544 753.08 496.92 L 753.08 496.92 L 753.08 496.92 Q 752.456 496.296 752.456 495.304 L 752.456 495.304 L 752.456 495.08 L 752.456 495.08 Q 751.976 496.264 750.856 496.936 L 750.856 496.936 L 750.856 496.936 Q 749.736 497.608 748.232 497.608 L 748.232 497.608 L 748.232 497.608 Q 746.632 497.608 745.336 496.968 L 745.336 496.968 L 745.336 496.968 Q 744.04 496.328 743.288 495.176 L 743.288 495.176 L 743.288 495.176 Q 742.536 494.024 742.536 492.616 L 742.536 492.616 L 742.536 492.616 Q 742.536 490.888 743.416 489.896 L 743.416 489.896 L 743.416 489.896 Q 744.296 488.904 746.248 488.456 L 746.248 488.456 L 746.248 488.456 Q 748.2 488.008 751.592 488.008 L 751.592 488.008 L 752.424 488.008 L 752.424 487.432 L 752.424 487.432 Q 752.424 486.088 751.832 485.48 L 751.832 485.48 L 751.832 485.48 Q 751.24 484.872 749.864 484.872 L 749.864 484.872 L 749.864 484.872 Q 748.488 484.872 745.896 485.832 L 745.896 485.832 L 745.896 485.832 Q 745.16 486.184 744.648 486.184 L 744.648 486.184 L 744.648 486.184 Q 743.944 486.184 743.528 485.688 L 743.528 485.688 L 743.528 485.688 Q 743.112 485.192 743.112 484.392 L 743.112 484.392 L 743.112 484.392 Q 743.112 483.752 743.4 483.336 L 743.4 483.336 L 743.4 483.336 Q 743.688 482.92 744.328 482.568 L 744.328 482.568 L 744.328 482.568 Q 745.448 481.96 747.064 481.608 L 747.064 481.608 L 747.064 481.608 Q 748.68 481.256 750.248 481.256 L 750.248 481.256 L 750.248 481.256 Z  M 749.288 494.28 L 749.288 494.28 Q 750.696 494.28 751.56 493.336 L 751.56 493.336 L 751.56 493.336 Q 752.424 492.392 752.424 490.888 L 752.424 490.888 L 752.424 490.344 L 751.88 490.344 L 751.88 490.344 Q 749.288 490.344 748.248 490.76 L 748.248 490.76 L 748.248 490.76 Q 747.208 491.176 747.208 492.264 L 747.208 492.264 L 747.208 492.264 Q 747.208 493.16 747.8 493.72 L 747.8 493.72 L 747.8 493.72 Q 748.392 494.28 749.288 494.28 L 749.288 494.28 L 749.288 494.28 Z  M 770.024 481.32 L 770.024 481.32 Q 770.984 481.256 771.544 481.752 L 771.544 481.752 L 771.544 481.752 Q 772.104 482.248 772.104 483.24 L 772.104 483.24 L 772.104 483.24 Q 772.104 484.296 771.592 484.808 L 771.592 484.808 L 771.592 484.808 Q 771.08 485.32 769.768 485.448 L 769.768 485.448 L 768.808 485.544 L 768.808 485.544 Q 767.048 485.736 766.264 486.696 L 766.264 486.696 L 766.264 486.696 Q 765.48 487.656 765.48 489.16 L 765.48 489.16 L 765.48 495.272 L 765.48 495.272 Q 765.48 496.392 764.792 496.968 L 764.792 496.968 L 764.792 496.968 Q 764.104 497.544 763.08 497.544 L 763.08 497.544 L 763.08 497.544 Q 762.024 497.544 761.336 496.968 L 761.336 496.968 L 761.336 496.968 Q 760.648 496.392 760.648 495.272 L 760.648 495.272 L 760.648 483.528 L 760.648 483.528 Q 760.648 482.472 761.352 481.896 L 761.352 481.896 L 761.352 481.896 Q 762.056 481.32 763.048 481.32 L 763.048 481.32 L 763.048 481.32 Q 764.008 481.32 764.648 481.88 L 764.648 481.88 L 764.648 481.88 Q 765.288 482.44 765.288 483.432 L 765.288 483.432 L 765.288 484.296 L 765.288 484.296 Q 765.864 482.92 767.032 482.184 L 767.032 482.184 L 767.032 482.184 Q 768.2 481.448 769.576 481.352 L 769.576 481.352 L 770.024 481.32 L 770.024 481.32 Z  M 788.296 493.608 L 788.296 493.608 Q 789.032 494.312 789.032 495.208 L 789.032 495.208 L 789.032 495.208 Q 789.032 496.104 788.376 496.808 L 788.376 496.808 L 788.376 496.808 Q 787.72 497.512 786.856 497.512 L 786.856 497.512 L 786.856 497.512 Q 786.024 497.512 785.32 496.84 L 785.32 496.84 L 778.312 490.344 L 778.312 495.24 L 778.312 495.24 Q 778.312 496.36 777.624 496.936 L 777.624 496.936 L 777.624 496.936 Q 776.936 497.512 775.912 497.512 L 775.912 497.512 L 775.912 497.512 Q 774.856 497.512 774.168 496.936 L 774.168 496.936 L 774.168 496.936 Q 773.48 496.36 773.48 495.24 L 773.48 495.24 L 773.48 476.904 L 773.48 476.904 Q 773.48 475.784 774.168 475.208 L 774.168 475.208 L 774.168 475.208 Q 774.856 474.632 775.912 474.632 L 775.912 474.632 L 775.912 474.632 Q 776.936 474.632 777.624 475.208 L 777.624 475.208 L 777.624 475.208 Q 778.312 475.784 778.312 476.904 L 778.312 476.904 L 778.312 488.36 L 784.712 482.056 L 784.712 482.056 Q 785.416 481.352 786.28 481.352 L 786.28 481.352 L 786.28 481.352 Q 787.176 481.352 787.848 482.008 L 787.848 482.008 L 787.848 482.008 Q 788.52 482.664 788.52 483.56 L 788.52 483.56 L 788.52 483.56 Q 788.52 484.392 787.784 485.128 L 787.784 485.128 L 783.528 489.192 L 788.296 493.608 L 788.296 493.608 Z " fill="rgb(0,0,0)"/></svg>